<mxfile host="app.diagrams.net" agent="Mozilla/5.0 (Windows NT 10.0; Win64; x64) AppleWebKit/537.36 (KHTML, like Gecko) Chrome/140.0.0.0 Safari/537.36 Edg/140.0.0.0" version="28.2.5">
  <diagram name="Page-1" id="NQ7ijZBkEDGVBqJC-Axy">
    <mxGraphModel dx="665" dy="850" grid="1" gridSize="10" guides="1" tooltips="1" connect="1" arrows="1" fold="1" page="1" pageScale="1" pageWidth="827" pageHeight="1169" math="0" shadow="0">
      <root>
        <mxCell id="0" />
        <mxCell id="1" parent="0" />
        <mxCell id="WcRkXMONvxPOSWSEBS24-3" value="" style="shape=image;verticalLabelPosition=bottom;labelBackgroundColor=default;verticalAlign=top;aspect=fixed;imageAspect=0;image=data:image/png,iVBORw0KGgoAAAANSUhEUgAABbIAAALFCAIAAACZB4ItAAAQAElEQVR4Aez9X6grW37gea72Q00dqAumZ54CbcudtzEkMxT1oGazHcZDHvLOU6Pp0/uhdIXHmeWZWwwlDsxo9KKm0l12NuhFLQY28kNdup3prtFVPew5ZVFPleYkVWR4c2g9FMWAGeNMp7w3wcDMNIZbcMr1UO7fWisiFCHFP/0PSV+hvxHrz299QmefHb8dseIXfv7zn/+/uSGAAAIIIIAAAggggAACCCCAwEULMLh1AUmJ/MJf/dVf/Qo3BBBAAAEEEEAAAQQQQAABBC5FgHEgUFJAUiK/oLghgAACCCCAAAIIIIAAAgicpwBRI4DAjgKkRXYEpDoCCCCAAAIIIIAAAggcQ4A+EEAAgUMIkBY5hCptIoAAAggggAACCCCwvQA1EUAAAQSOJkBa5GjUdIQAAggggAACCCCwKsBnBBBAAAEETitAWuS0/vSOAAIIIIAAAtciwDgRQAABBBBAoIICpEUquFEICQEEEEAAgfMWIHoEEEAAAQQQQOBcBEiLnMuWIk4EEEAAgSoKEBMCCCCAAAIIIIDAWQuQFjnrzUfwCCCAwPEE6AkBBBBAAAEEEEAAgcsTIC1yeduUESGAwK4C1EcAAQQQQAABBBBAAIErESAtciUbmmEikC7AUgQQQAABBBBAAAEEEEDgmgVIi1zz1r+usTNaBBBAAAEEEEAAAQQQQAABBFYESIusgFzCR8aAAAIIIHBFAv583G/LrT+e+Vc0bIaKAAIIIIAAAgjsR+C80yL7MaAVBBBAAAEEzlZg/m7kLXT0C2/6bq7fXPLDn437+tZu9w+dBJqPda5JOiPddMnfKMaGAAIIIHBGAgcLlbTIwWhpGAEEEEAAAQT2K+A/ewt922+r2a3pvrxnjsLJFmINAggggMAhBGjzuAKkRY7rTW8IIIAAAgiIgDkUoW1u490O8Wi86bp1aVHV3dabhn5T7jEf9825N+32jgGU645S6wJsgnUTliCAwPUJMGIEKiBAWqQCG4EQEEAAAQQQ2FrAaXQGE7kNOk1no0YW5tybjaocqLA/9y/ggIwtRlGdTXCgLUuzCCAQF+A9AghUVYC0SFW3DHEhgAACCCBw2QK+78/1XCHt3uhhfrZ5kcsYxWV/0xjd8QVsj3M9H3R/fCb/vM8rWit8js84n+NWu4KYSYtcwUZmiAgggAAC5ysQZA7M+Tby1Ne7GIkUwvJ8nOQspOsVZ3bnxJ/ps2dGXmjijaRdfR+b03nsav05fnpNai/RQlNTXxJHt6yrpl0WR5Ig0Yk7uky71+uNpp45YmIRTRebGXYYbuw12aMdXbB6g1HYGjlt2QLBc7lRSOH1gSyPibHRZW4Cqc39bAQuJlD7rTT/NJdPyR8q2401cViaP1/+O9iuucJadiDmh1Jh2fUCiWjXV0dLjjCQqK8TvrGYyy+EeXeO34oTGtL1mQiQFjmTDUWYCCCAAAJXKCC/kkaZAzv8xcIb9XqFv5VKwmK94nTUS0tX2IaVqt9sdhJOWE9eX/z5rN8b2RSHfFYLb5oMUv4+KEmQZQFdSB51t9XtDofDyaSj50XZJOzndys9yui2vTqNji4RvbT1+CLxrdx1ufgwg9Uro5ClW264HTaBdHroO+1fg4DbncRvgw1PzVshsmf4dRrhj5b5uDcavUvkdVdqnPLjarQ5sVR7IDmBb7fqmr8V24lR6wwFSIuc4UYjZAQQQACBqxCQ37yn6X+6XEx7eX8LnY+XByIkpRYp+/phiZoT7ruES0q/Lqaj9UgXT9HxGzqgYCRuV3Igk8mw29ITxUr6ZPTBDzrWpdK7TAl74dnrEscrLKYP2yRGdL9BdLY1/bwwR7Hod9EjVi5nFFJ86w23wyaQbrkjgMBlCehT9MZ5yezLGi6jQeCUAqRFTqlP3wgggAACCGQJ+LPH8DyXesukEqJkgq7iPWZmAHw/Sn5ENSfDYdetu623Tcdp6ilau65SSjekwj8EmuM1zJKtnoKupJuw+uI5+Kvw/EM4Ercb/OHYaTTvgwjCkRSEHbYavdaD3MRkaDIsZnksFWM+l3iKOatlk4K1WrfcKJSKNRiYrG24A22C1Yj5fM0CX/2P//+c+2YyvjnxLnaQml0Qy83GT0Jrm1P9TA+mnKln3rVNvjY4bS9WW+nq5vQMeUpmAUw9KTrXs5TIWnmrzHvTqulkw6eCvpLt6sLhqYF6XLP53FikDWQ+lvji1U3ssXMRzefxXH5EBINpt/vyMR6/Pu4u6q/d7j08mMPW1uakDpqKhydNBT9wgwaDMpZLQou6iteSCDL/JwnayXox7bdjA7YLom7kZ6FsqWg0h/5WZIXJcgRKCpAWKQlFMQQQQACBcxY4v9j9+VNwBENd5zLsAGLJBBUlHeyq2LPj1MJP0Rvl6CvWbHqxmrCZwlfZ/w+OtnecG30YSLxGLN8RXxwVDEbibBS2qAQZFuU030aJkY3zIktnFW+y0QmzNmHIJUchO3hbb7iwK14RqJaA/ScWzQDkzx6mC8mnhplU2R3uSZ7gzmZvh907+bmzeuhZLBUYJGLD2pIl6PdGL3fhcWR3L9NeLJegJSSR8qjuTfNSSxKU8rMxikYXKP0woeb2FW9qPpZx1YJxTYb3d+rZzxlIvGrmexnLw/PtW32mkuSQF94ollfQ/U1V0J+slUZq94NBpxmdhSRLlndv1Hu8uY81lXIQoXQXo5O6RsCrWc3JsFtb55ZSZe7V+laUiZgyCOQJkBbJ02EdAgggcH4CRHwhAv6z/OZvxrKQnQT5U19wl70Ps1Spl7W/IAYrVKMTHuzgSV35I538iTP5d8Sw5AFeY9mNoPX1JWbFcoTmo9oh7IwegnZzX2JR5J/CktFHrL7tZ7lg8w1nW+AZgcoJ2F1gb6QPBZi/W0mK2CRJkBhVkrztSPKi7BBMjkVSksGuv9TWWc7wGLKwFfc+zILKD4pbV1Kv9dYbPR9RWKDUa7m+oqYk/6KUextOryKhdfaQWZaxBmNxGreuWia4zXFmsjboz2m8adUXqxBRcPqN2x1EbFJYqbTScTpJQdmNFUQgG8skgNPq6Q4KHlX6VhSEymoECgVIixQSUQABBKoqQFwIXLBAxrEJ8RHn7cU3OoNht6V3HuS37oU3HY16klZZO8o63twB35tf/k37erfKJGj8+fIcIfc23L3ZQ9jBoSemt82eiuY7LTeKHTfcZiFTGoF9C3jhhankB0b8BIngoCzvcTx+9GJHigSHRxX968kM0x6ulfhhZjKQyX/Iy58RuiH5OTGZhFkYvaDko1xfK415I/1z0/zUWlmz3cf63eqhH2GC22RU4xIpEIk+E+hO406SRUk2XTpBZwUS9ZT5wVZwmN05fCv0YHkgsIMAaZEd8KiKwNEE6AgBBK5NwPxCbAddD2cW0Yddxx4Ff5DVf9rUk4jYWUXkF2ZJkHij5PVhbAeHf14evqIkBL2/1QvnaK3r6UZiEewadvI3/ljDhW/XdyhWqpQaxe4bbqVXPiJwTIHgDBf7gyaZejDHBui5jlMO1IjvzW8RbmK3285AEm9l+3/V8VaC9wV9BaX0S/AvfiE/tGxaeRbNIq1XH+QR5kh04ybHuuHY4/V1G2nVVzaWOZ0x/8ff5X8rtBWPKxcgLXLlX4DqDZ+IEEAAAQS0gPlVVb9RBX/HM2XynsysIvq4dFNo19ZMI5s/6bk6TGpmWbVed1vd4SAru7NJ2Gb3wba88hu/XZjzvHTOOSsprF9mFMsGT0QdBssrAnsWsMcaSH51eZGpPfWQ2O22KZmsHww797hJX/q4FHPcnf7hpQ+7O2ReWZ80o5aX0zJn/Kj1g0t2BthzA5fxrdgzCs2dowBpkdNtNXpGAAEEEEAgUyB21IH8ojyO/krpz2fjfl+f4Z9ZVSl/1tdloslH/Hk0gevyTPawvvfBNO5HpcMVYZ5AuuyPwmvJRCs3eiMBjbyFUvXYLsn6TIJSqnTYesJFe2C7hKdPl7fxpPxtNPjzqRRLG4U99NxUFufgmgwZZSW+4lFss+GyN4EJjCcEKiBgdtPrLT0T6PKfyp7iCv6R7qm1/GY27cscwDbQl5NypeFDJjud5qDrSmJEH5rSbvemypW8cTDTiHRd6r5pXlgaNSfvpPzklFXF90v5VhSPlBIXL3CUtMjFKzJABBBAAAEEthVIHtKtTzCxZ/TrA7jDNvVR3GaN/K48mnoL+ZydGJGd9950ocv07K/XppLkJGxrwanmy4MagvNaer0HkxRI7NabBqITXmwD2zybX7ylogQejMO+SBYkPC69XNjSRnj3zHwpK4O7D3Yiyo8ilhdZ7pCEp/iEfdnXEqOQgqU3XOYmkEa4I1AtgWD3923TzAQq/1Tsjwul7D8gyextF6+tvlmyYa6vbxu7gEvZnrfpa9m2nSB1+bn4XfgDo7hkUGI+HnmSeLKHy0wmg3Bi1GB17os9aCP48Z5V0gokN5aZWHbLg1Kq9K3IGjPLTyRwft2SFjm/bUbECCCAAAIXLhD8wa/RGUYXnl0Zcd29dVYWRR+d5r2dazVasnxTj2by0KWWy807fQCGvDGHcstr/O52u/ovpfFFG72PZQAS9SR5Mw3mO9EB6SPVE+uDD8uwgwWq7q6PMVGq/CjMjAlhu9Gr21q3LzEKU79RbsPpEZvyy6dgEywX8A6BKgiY3V/l2qyj/RcTHTFiP0azKSt/PhvP5ulRm39CweEawfFptrpuzRy1pnR9SZdmNKCblf14yfJu829lw74k/SIjsQelSVxmluggf5AykOTcpaLQf9zwGDtzMmD+JB96/NEjjmaumZwy6UtU2L6xAvGNJZkY+XFqt6wtU/q5Ut+K0lHvvyAtXogAaZEL2ZAMAwEEEEDgYgSWhzM7zcFw2HXr9WW+oC47/8OCPyMmToi3LNKE2x0mZvKQnXfdtF2vlG7YXvFS9xpcxUZWmhlA5K+WN8sYZOmG92STq5X1b/ey71Eu7KDyzZvBMBakVpG/rQYr9Uuyy9xR6KIxClu26dR0M/GHLrfsM75Gvw9God8qXbLEhsvcBKYRnhA4vsDq0Wv6oIxg97cbTfdhM3rRN15/3bvuS3T41tPLs5J/0CnB671yV03tUWgPQR7EVldPYf3Hp9pddtpX6fSD/DAqSgGsDsQeX7dJX75zW3t5ejTBttvt3lPspJbUgci/51Y4uodHdf+2u1ky2TRaTwTej+Vl1jzr7t1zEJ4+46Y1TE6Ru1beLLACL2G90Yv8x5D80WmKJZ+CmETB3iv4rUgGzCcENhcgLbK5GTUQQAABBBDYUaDRCY+TTnlN/G5rZh4dDKJiA/kN1on3vmwqWa/R7CSq6XqJivrw91iRRMOOVA66HHSa+oKS8su0XRDrJb3r5dJwL0r+LOz7Smc9bBPBs+QNwoFEfyF18sOO2tZRxIPUowsbi17jBbJHYYo7El2IHIw46isYxgaj0E0WbjhdSMX7nSQ2gVnNEwLbCnz+n/0vc+4prUb/LtZ6DAAAEABJREFUxIN/n/bF/kvT/zaCfwe2pv3XoVfaz/qLbCvI8/KLbNpclpKy8X+UwRlvemns35/+d2B+5shy+SHVlL4TLSj7o2RlmSlsn0ynEkbyHoWvQ5U27VoJNa0v01D+P+HUgSwXDgbSrlGKOtbZ0skkEbcpEFuyrG/CG3Zr3nTUsxkdE1Py6UbYTEF5kh9bTnKtcYg1Hq1NCkjOO1qz/sY0Is0n77pVu2Y5OqlrhhMboe4oqijU+n8SKWZq6ibkvb3Hxh1brquX2lK2EZ4R2E2AtMhuftRGAAEEEEAAgVyB+bhnb/3lxLG6gp/xB2W9rnqPyxhF9VyJ6LQC9F4VAX8+G4/N9E7LiILpTIKzjpbLeYcAAvsXIC2yf1NaRAABBBBAAIFIwJyFrz8twklS7XHYvd40OvW+YKJAXfvEj8sYxYkRT9k9fSNQaQFHPXve9GEWnFmkY5VMiZ6eJJjORC/hgQACBxMgLXIwWhpGAAEEEEAAAX0UfPYUsMan3homjsQ2C6v2pGdTqOcFVZlR5AXJOgQQqKhAo6NPK1zOZdJu9x6faq1u+owhTs1171bOmqnowAgLgfMQIC1yHtuJKBFAAAEEEDhbgUZnMOy2EjPH6rHUzdymw9ip6Hpp+ceRS17GKI6MRncIIFBWwMylEU2mMZkkZ1lJtCJFO3a+pMRiPiCAwNYCpEW2pqMiAggggAACxxG4gF7sVKrx3/jD3/nP6Q+elzGKC/g6MQQEEEAAAQT2KUBaZJ+atIUAAgggsJsAtRFAAAEEEEAAAQQQOKoAaZGjctMZAgggEArwigACCCCAAAIIIIAAAqcXIC1y+m1ABAhcugDjQwABBBBAAAEEEEAAAQQqKkBapKIbhrDOU4CoEUAAAQQQQAABBBBAAAEEzkmAtMg5ba0qxUosCCCAAAIIIIAAAggggAACCJy9AGmRwk1IAQQQQAABBBBAAAEEEEAAAQQQuEyBeFrkMkfIqBBAAAEEEEAAAQQQQAABBBBAIC7A+0iAtEhEwRsEEEAAAQQQQAABBBBAAIFLE2A8COQLkBbJ92EtAggggAACCCCAAAIIIHAeAkSJAAJbCJAW2QKNKggggAACCCCAAAIIIHBKAfpGAAEE9iVAWmRfkrSDAAIIIIAAAggggMD+BWgRAQQQQOCgAgdLi/izcb/dbvdn/mr8smY8m68tlmL+3NSRau1+f5xaREpxRwABBBBAAAEEELhEAcaEAAIIIIDA8QUOkRYx2Y3e1FukDmf+bup5z8pZXenP+r2RV+sOJ3Ib3ilv1BvPVwvxGQEEEEAAAQQQuAABhoAAAggggAACFRHYd1pEp0Qku7Gou92WmzJGf/boKeXeNlbXSbZkodxup2HyJU7zbasumRESI6tOfEYAAQQQQOC8BIgWAQQQQAABBBCossC+0yKOc1Nzu8PJIMhvrIzdnz8tVL31Zj0r8kGyJfUbkxMxdZzGXV2pFz/tZBtTgCcEEEAAAQSqJUA0CCCAAAIIIIAAAmcnsO+0iHKanfSMiKYxh4TU7+wRIXpB+PD9F3lbc5ZpEeU4NaUWT8wwIjDcEUAAgYoJEA4CCCCAAAIIIIAAApchsPe0SB7LXB8S4t43dfJjPo7Px+o/L5SKHyyS1wzrEEAAgeMJ0BMCCCCAAAIIIIAAAghcsMAR0yKZ04pcMC9DQ+CcBIgVAQQQQAABBBBAAAEEELg2geOlRTKnFbk2csZbAQFCQAABBBBAAAEEEEAAAQQQQEAEjpYWWZlWxE4mIgHYu3NTV2rxvK/5VV9eXv6UmxHgCQEEEEAAAQQQQODyBOTXXftrNM8IIIAAAjsKHCstYtMgi2mvbW+96ULyIPpjfybJEDO/avK6M6ZG2vSsGSOOL67Var/CDQEEEEAAAQQQQACBCxWQX3fjv/3yHgEEELgugb2O9lhpEac5mMRvw1ZdqXprOJkMzAysjVtX0iSxw0XsOTcpF63Z6/BpDAEEEEAAAQQQQAABBBBAAIGqChDX4QWOlRYpHEnjjSRKvNF47uui/uxhulDBRWv0Ah4IIIAAAggggAACCCCAAAKXK8DIEDiRQGXSIsppDoZd92VkTrPpPSm3O+w0TqRCtwgggAACCCCAAAIIIIDAgQRoFgEEqiRwwLRIozMJT5FZH7EkQdZXOo1OeKrNYNBpOOvVWIIAAggggAACCCCAAAJnI0CgCCCAQOUFDpgWqfzYCRABBBBAAAEEEEAAgT0J0AwCCCCAwHkKkBY5z+1G1AgggAACCCCAwKkE6BcBBBBAAIELEiAtckEbk6EggAACCCCAwH4FaA0BBBBAAAEELl2AtMilb2HGhwACCCCAQBkByiCAAAIIIIAAAlcpQFrkKjc7g0YAAQSuWYCxI4AAAggggAACCCAQCpAWCSV4RQABBC5PgBEhgAACCCCAAAIIIIBArgBpkVweViKAwLkIECcCCCCAAAIIIIAAAgggsLkAaZHNzaiBwGkF6B0BBBBAAAEEEEAAAQQQQGBPAqRF9gRJM4cQoE0EEEAAAQQQQAABBBBAAAEEDilAWuSQuuXbpiQCCCCAAAIIIIAAAggggAACCBxd4OhpkaOPkA4RQAABBBBAAAEEEEAAAQQQQODoAufRIWmR89hORIkAAggggAACCCCAAAIIIFBVAeI6Y4HLTIt8/Pjxa24IIIAAAggggAACCFyogPy6e8a7IIR+3gJEj8ClCVxmWuTVq1efcEMAAQQQQAABBBBA4EIF5NfdSu+X+LN+vz+e+QcL0p+N++3g1p/ND9TPWrNz3Wt/PC87sE3Lr3XIgl0F5JsyHpffYrt2R/3zFLjMtMh5bguiRgABBBBAAAEEEEDgFAL+LMoxBKkGeenvltVYLF5KDsWfz/2yeQbTpCRdelOv1h1O9G34ttEwi7d8ktZktO326njn49TFSi027GjT8hs2X/niFnicyF1Z3GNkK/xnz/NeNvp+VV6UAPcuQFpk76Q0iAACCCCAAAIIIFBZAQLLFnC7OssQPQZNJ7vs/tbMx73R6N1Gu63+s2Qa3NuGjc9x7OuuIS2eEgeBzD94psXFcyy2RmcgPp2gZ7M+92nT8rmNXcxKyZOMPFVvDctDXszYGUg1BUiLVHO7EBUCCCCAAAIIILCjANURQKCMgE6y1F23rhJ5EZ0VMUvLNEGZDQQkDzZdKLd7pLTbBpFR9HoFSItc77Zn5AgggAACCFyKAONAAIGEwNeffZZzTxQt80H+uN9uj+fKn+mZNeyZJfIxWTWxcjZ/Xlk7H/ej83T0rCP6wAzTbnukD8rwRqbZsFVzikX8pBZbdDy3r2lVdH++9GLakafEzCZmebw9XTrxuLm9k7zI8sAQ339RqnZzI4VeYmf4mP6XDZmPEnRi8PGTRUyBtfL+fBZK2jCXgdvP0qu5ZzqYtfJk2heWsg1Klfg9qr7cOsmJU4ICygCKqozV1tcRLzdo+VlkpMFRcKCIbUg/6+iXX4920kC+dtKRdJyJnF9dd8ADgQIB0iIFQKxGAAEEEECgSgLEggACCJxGQBIXD8+3bydyG3bdhTda7uwrvefam3qqZSf7eHv7PPUWsTDn497Iq93ZtZPh/Z0y+Qenqc9I6bpSMjh/p1M0SUhOFdnh7o1e7uyEI8Pu3cu0p3M50riaf9DhLKbv4hkLvUI/TAJEKcepKeV9CEr486eFcm+LwtH1Va6MKZF88ka9RytpIKe9fv/h8cbKtpQ37UkKIFmj4NOODerqN/e2f7NlVwOQAT6qe7P17AYy1F7NLpoMu7WYdW6s8kVIO1Ck4dze2QD0t6tVE4P4t0s3KTFkfv1KVNdN8EAgW4C0SLYNaxBAAAEETilA3wgggAACVRKot94GU0E4jVtJZcTm3Ji/k51dWR9MRuI0OsNWfRm7ZCWU5BiCtcppNDud8MOy1G7v/NnDdKFDsNN+SB9vJQTv0UwbK/FKOPXWm7w0hxSK8iJhVsTkSmIDTY9Rus2SSa0QlbeQalG7D04ocRp3Emj88JTUBlYX7tigPp8lZHsjaipgW3bj3gcD1IsMtXK74SLZ3PfyfVirpMsmHvPx+oEitkCj0bQByEenab5dyYlelIrGKN8fU8Bk1qS83EtUl1LcEcgWIC2SbcMaBBBA4EgCdIMAAggggEAFBOQv8u3otvrn+vpdtOMahBrtvZu0x/r6oFjw4o306Rmx2UuD5ft5MXkMVXNik6/GUxoNPVNqkHpY7VBPLWJqxvIielnJY0Vkhz1bZrUv83lNqnRPpvr6044N1m/iaiYxs5IJSgRoqROVlKFLTM2yHqWyh+WsNJ1STjk3khtaWbE2RhV9/VZKplZfLcNnBJICpEWSHnxCAIHDCtA6AggggAACCFRVIDiTZWJuGUmElNjt7m4iJZEs1eh0XdnRXXijXk/SLv3xTM8skiyzl0+JvI6dtGSTds3Ovd7b1nkeu99v9tD1ok3auYCyiSFbiuSoVja3cSrIeDhNfQCP8kbrJwmZyVb68t0w9940fgZWst/UTztWT22ThdclQFrkurY3oz2iAF0hgAACCCCAAAIIGAF9tMaw23Lrkh1RC2866q0ejGKK7fqUyOuY5M7EToaR07BJ6gQ7/jovsniazz54av3ohJw2WFVOwGkOuvp0m8S8NErNx73R1FPBtDCTSeIMrOKWd6xe3AElrkCAtMgVbOSDD5EOEEAAAQQQQAABBK5WwJytkn1OQ+jiNJqdwUB2evWecfJiuGGRXV8Txzhs05jJi0xlFz3MipixFRwFsU1HVa+zcjBIYbj6rCMVJJdyCzc6evMvpg9m0hdd1J89ekpPHbKcXkQvLvvYsXrZbih34QKkRTbawBRGAAEEEEAAAQQQQACBhECZMyiWFYJ5RpcLyrwzu905Be1cpYvVeTrDGub6sukHqJiWoyyAGYrspK9NFxK2dOJXE+0hY7AzhyQmE1npzlJH1+wxa/VZR2UPsGmY+XgXKxfcibaAtLfFIHesLp1yv26BrLTIdaswegQQQAABBBBAAAEEECgn4DTNlUhGYztliD+f9R/i00NIUiI2nUjw5/0o8WAyEcFxHr5v52TVR21EB5To9vQBBbnB2Ikr9FEINgila/WDWSxkr32hVMYFehPNOo37luu6UXB2ZRCd/XDM580dtogujqav56MKLtljqfUUIXZj+fYKM+592asL2QbCSUaCNIu9ZpCS7aavVyNbK3almbxBFVY336+8FlhnBK78ibTIlX8BGD4CCCCAAAIIIIAAAkYgOWNpu51+eIUpuvLU6Ay7rfrLSM+o2n54fL5/23WjIr5zW3t5ejTr2u1270m53eFyRle9k+yqqVndewiSGo3OsBUufHhUifaihpNvnOZg2HXVkw2i3Xt8qt3d2musSHahrtL39s3UIrGG9Kk+8csHn3inurG5Q2ww5d7W3bvnYOv0psptxbZNRgOW+iWsNHrRG7RwFpdYY9JAV74gnplkRD4sN3b74bG0WQsAABAASURBVMPNcCif68UX/LUNFlXXSbv6Qn+/giSZrcYzAnEB0iJxDd4jgAACCCCAAAIIIHD2Ap/86Ec595Thya6lnaE08RymLsza8IOp3ehIwcQSSSfoiUNk8WQw6DQcXSIo4MiHQbhSCpj1ppngyWnq6+fKmskkqCIrlgsHg6ZtL5o/VTcefZCy4d10ZNqRJ+lG6tlVesrXWNt2oXk2Y0try6xVyqyPRzVIBpn4KHVMaOXLm+KxhMJKd9JgnsNaeErFG5Taq/HrRWuPG8MjZHIfdBLHfKzHE9ROUssGD5anvZhGVo1NoOE2WQ5yogNwzOdQ0VQPP5j2Td3YElNcgpf7enVtIltJ1sWcTTM8IRAJkBaJKHiDAAIIIIAAAggggAAC5ydAxAgggMAuAqRFdtGjLgIIIIAAAggggAACxxOgJwQQQACBvQtcZlrk48ePX3NDAAEEEEAAAQQQOFsBAs8XkF93975jQIPXJ+DUXPfOub5xM2IEkgKXmRZ59erVJ9wQQAABBBBAAIFzECBGBLYQkF93k7/V8wmBzQWcRqfTiWZg2bw+NRC4EIHLTItcyMZhGAgggAACCFyWAKNBAAEEEEAAAQSqJkBapGpbhHgQQAABBC5BgDEggAACCCCAAAIInIUAaZGz2EwEiQACCFRXgMgQQAABBBBAAAEEEDhfAdIi57vtiBwBBI4tQH8IIIAAAggggAACCCBwYQKkRS5sgzIcBPYjQCsIIIAAAggggAACCCCAwDUIkBa5hq3MGPMEWIcAAggggAACCCCAAAIIIHC1AqRFrmjTM1QEEEAAAQQQQAABBBBAAAEEEIgLXGZaJD5C3iOAAAIIIIAAAggggAACCCCAwGUK7Dwq0iI7E9IAAggggAACCCCAAAIIIIAAAocWoP3DCJAWOYwrrSKAAAIIIIAAAggggAACCGwnQC0EjihAWuSI2HSFAAIIIIAAAggggAACCMQFeI8AAqcWIC1y6i1A/wgggAACCCCAAAIIXIMAY0QAAQQqKUBapJKbhaAQQAABBBBAAAEEzleAyBFAAAEEzkeAtMj5bCsiRQABBBBAAAEEqiZAPAgggAACCJy5AGmRM9+AhI8AAggggAACxxGgFwQQQAABBBC4RAHSIpe4VRkTAggggAACuwhQFwEEEEAAAQQQuBqBy0yLfPz48WtuCCCAAAIIFApQAAEEEDhPAfl192p2WBgoAgggcFiBy0yLvHr16hNuCCCAAAJxAd4jgAACCFyQgPy6e9i9BFpHAAEErkbgMtMiV7P5GCgCCKQJsAwBBBBAAAEEEEAAAQQQKCdAWqScE6UQqKYAUSGAAAIIIIAAAggggAACCOwgQFpkBzyqHlOAvhBAAAEEEEAAAQQQQAABBBDYtwBpkX2L7t4eLSCAAAIIIIAAAggggAACCCCAwFEETpoWOcoI6QQBBBBAAAEEEEAAAQQQQAABBE4qUN3OSYtUd9sQGQIIIIAAAggggAACCCCAwLkJEO+ZCZAWObMNRrgIIIAAAggggAACCCCAQDUEiAKBSxAgLXIJW5ExIIAAAggggAACCCCAwCEFaBsBBC5WgLTIxW5aBoYAAggggAACCCCAwOYC1EAAAQSuS4C0yHVtb0aLAAIIIIAAAgggEArwigACCCCAgCItwpcAAQQQQAABBBC4eAEGiAACCCCAAALpAqRF0l1YigACCCCAAALnKUDUCCCAAAIIIIDABgKkRTbAoigCCCCAAAJVEiAWBBBAAAEEEEAAgV0FSIvsKkh9BBBAAIHDC9ADAggggAACCCCAAAIHESAtchBWGkUAAQS2FaAeAggggAACCCCAAAIIHE+AtMjxrOkJAQSSAnxC4FoEnr3BF69ff/HVsxmw/vQtc/tiECyKL5eCicVmHU8IIIAAAggggAACBxK4zLTIx48fv+aGQIUECAUBBK5W4E9+/3f+j9/53p/9B6X+w7/7t6LwJ7//j773Z7/6ezO5/d7f/fdffud3/kgWyj1a/ofj+GJZwx0BBBBIEZBfdw+0e0CzCCCAwLUJXGZa5NWrV59wO40AvSKAAAIIxAT+8l//8d/4rR++/0ff/lT9wt/8W7Lim3/vv3v/3/29b8q7T7757W9/pv7l//hv9Pt/88/+hz//7LfM8m9++7e++PRf/tN//pd6OQ8EEEAgXUB+3b22/RbGiwACCBxI4DLTIgfCSjbLJwQQQAABBIoEbj7/su/eZJR6/oufBWv0u09/+ZeCTze/9A3105//RfCJFwQQQAABBBBAAIEDCpRJixywe5pGAAEEEEDgWgWef/L+p+qzX3evdfyMGwEEEEAAAQQqKHCFIZEWucKNzpARQAABBE4v8PzV737508++3ycrcvptQQQIIIAAAtcpwKgRsAKkRawDzwgggAACCBxRgKTIEbHpCgEETiDgz/r9/njmH6xrfzbut4NbfzY/WD8HaXjD4P35OB9T2huPx/M87YOM45IaxfCStubmYyEtsrkZNRBAAAEEENhF4NkbfOfLb3z/h8sjRZKziSRnGtmlJ+oigAAC5QT8WZRjCFIN8tLfLauxWLyU61z587m/0S69hNuberXucKJvw7eNxrKnjd9JYzLYlfuOY88LQvrbNHj/JR/Tf/Y872UjwrwIT7ROYGQrjBMprvlYFrWPkfG5DMMTbboL6Ja0yAVsRIaAAAIIIHBGApIT+d7PvpCcSHwmVvc3vvj0Rz/46lnG8ez9ky9/+tl3P4+vlsXcEUAAgRWB/X90uzrLED0GTWf/fay3OB/3RqN3G+3T+88Lpdzbho3PcezretMbLDne2A8Q/AbjPKeikicZeareGnaCLX1OwRPreQmQFjmv7UW0CCCAAALnLfD81Q/+xV//9Z/949/8lrm9fv2FyYWom89/+/vfeC9LX3/nB0onTc57mESPwH4FaA0BBK5OQNJl04Vyu0fKzl2dLwNOCJAWSXDwAQEEEEAAgQMI3Hz+5fsvzfEf8u7Hsdv7YLH0eeP2v5Q1sqRvSsoi7lcowJAR2IvA//Nv/a2c+8ZdyF/t2+3xXPmzaD6PvnxMtpNYOZvro99iBcz0GPp8CP3QE2XoiTBMu+2RJ+W8kV6hO5EPSplzJ+Instii47l9Taui6+leTDvylJjZZK4Dj7enS5d6mA6l3/lMNyHttm3Dy67s57CxqPy4H56XJFb2WBizLnW8urZuMawSdKIXxx4J4sS5JrFCy7e6QR2wfqQGmb9Blw1JOQlMI6QMyhQzI5OvhHGW/uStWa50DFJXFsk9GYQtkPEsDY6CA0WWJfQ2iFTbq0ZSJf9bml992Q3vrlGAtMg1bnXGjAACCCCAwMkFCAABBM5LQBIXD8+3b/UpNsOuu/BG8SyD7JL2pp5q2ck+3t4+T71FbHjyh/+RV7uzayfD+zv1rBMFTnMgzXX1FbmCc1g6RZOE5FTRMYxe7uyEI8Pu3cu0F6ZZ5h90OIvpu+JcQizq5Vtv1Hu0YzdDn/b6/YfHG2vRUt60F6UBbB1d/uberjdWtkBR8F7t3hINu7VY9LbNxbSX7W+LxJ9zNIJiuRs0KBN/yRjUsog0+KjuzQjsdjQx5A5qWTnxTr4vaQeKNJzbO6sqX5thqybw8S+hbkJiyFQqUV03weMqBQ6ZFgnymcsvq7+SLtRJ4ri6Xi15RH2XHPLq2nhJ3iOAAAIIIHA2AgSKAAIIXIJAvfU2mOPBadxKKmNhUhtmZPN3shcr64PJSJxGZ9iqmzXmSbISeiqQYK1yGs1OJ/xgCuzhyZ89TBc6BDsNhfTxVkLwHs20sRKvhFNvvSnKumQFIg3bsduhq0XtPji3w2ncSdMvK1PG6lM/wkDeSBwqCCSjfRO8cru2DyVCnXsRTlaKYpDVK/5rzZoGpUIzDKIZ0whLy/qgQzuq2AYNiyReiwfl3gcN6nomhqJB6YKrj/l4/UARW6bRCAYkH52mQXha2WfMG1SJ6tIw96sUOFBaxCQ4JGW8kiXujV5iOVDJOC5TJvrYrJ5kkYP87p2StStp16vcQAwaAQQQOCcBYkUAAQQQOGMB+VO7/vukfcR+TzdDqt/ZXWzzwTxFuQCT9lhfbwpFT95In0yiDxKJFu3xjT9/kh2PmhObfNVxakoFu/qNzmAyCRIZ6b1uNnb3NjfBUr+Jx2ESJ0EgqZ3b4BOVlGRyJPrYTv+6b+S/1qhtMFPDlt+kQV0jEZ/NBq0MKqFiY0hUWh+Ubnf14fv6CkYrTa8W0p+dG0lI6TexxwaDSqsea4m31yVwgLSITolIgmNRd7styXJGnpI17g4HYQbRaejE6fJQNpNjjlKkjk1ojkiMRHy8QQCBagkQDQIIIIAAApcmEJzJMjG33CRCYuR2PzaxE55Yrxqdrit7sAv5s2dPci798WzlT/zJ4tt/SuQ27CQeZRvbcuxlm1cqO4kRtLECaPbaSyQHgtopLztopLSWuigxqGQKxJbfYlB2R1D+Rr6+J+ib6UHkK2Tuvalkwmw35Z53rF6uE0qdp8AB0iKOc1Nzu8NJlAGJZJxEitnRCdzwB4TNMcfyqjYDmfiXFrXDGwQQOKYAfSGAAAIIIIAAAjsJ6KM1hvIn07pkR9TCm456qwej7NR8WDmR2zDJnYmd5SIscFWvZ6vhNAdd+eu6l5i+Rs/D2xtNPRXMHjOZJE7UKt6y8/FO1Ys7oMQ5CxwgLaKcZic8JiSPxuaVbQn7PpFNNFmTRezAMVuSZwQOKEDTCCCAAAIIIIAAAhsKmF/bwz92Ztd1Gs3OYCB7s3qXVx3k1/wq/0k1saeTrRSt8Z8XSqUdgBGVKHpzBI2DDarR0d+SxfTBzA2jR+rPHj0Bab1dTi+iF5d97Fi9bDeUO1eBQ6RFylkEp5vZkxR3/2dfrlNKhQK8IoAAAggggAACCCCwF4HNzvew83tu2LHZW8ipY480z8y1mAvHHuQAlZyYglV2rycx70awJnyxwXsf4tfJscfS212lsFzpV9tgpkbpdrILHn5QDTNt72LlKj/xPEzRdyIl+h2rp7TIogsROFlaxMwlotz7fU9CvbZdWIAAAggggAACCCCAAAKHE3Ca5ropo7GdMsSfz/oP8XkfJCkRm04k+Lt9tMdvkirBkQ1+cEWXxISjuj19pEDuAOyMFPrwAhuE0rX6wfQUkmNYKLWc1TC3pT2sjIehr5CjCi6CY4P3QkCJ3VyMpfSukiGMx20bjIch2yTUiBfc4H28tWMMStlBhJOM2FRPdHEe31yvRjbq8npIuWMprL5mmNscKysssFVoJ0qL2K+xnmF1q6iLKr28vPwpNwQQQAABBBBAAAEELlRAft0t+o148/XJOTrb7fKHV8if9rut+stIz6jafnh8vn/bdaP+fee29vL0aNa12+3ek3K7w+WMrnrv11VTs7r3ECQ1Gp1hK1z48KgS7UUNJ984zcGw66onG0S79/hUu7u1V4SRLEtdn4CRc4He7ceejMJ8qrt3z8F4e1OqL5AbAAAQAElEQVTltmKjNevXn2zwL2Gl0YsmKj0vis5L1ReaMMgDKckpZGqs915qybEHJUGJimxRSYzob6J8WH4n2g8fboZD+VyPEiVSPu9eVD3FMK+5SqwjiP0JnCIt4s/6I0/Jj8Plv3STndtppuUESa1W+xVuCCCAAAII7Fvgb/+N/7Li932PmPYQQKCiAvLrbuLX3x0/yD6jnaE08RymLsza8IPpqdGRgoklTqOpJw6RxZOBvvKCLhEUcJxGZxCulAJmvWkmeHKa+vq5siZ+Ed3lwsGg2ZAmZH2496AbT5tMVUot+5FupJ7tQgKIt20XBs9mdNJ48h7ErtMLyZqrfZvqYemgSXVjOrQtDjrJw+NXGwjrJIOPT9W43oVpI95p2F8opBtNNihhRJe/KNGgbmDlkTOo9QaDuskY4oMKCsReTCOrm9WMdBIMdfmdmMhwHMd8Dtatbyll6oarpSNTfLlRktWVFB+YlXFDqcX9KgSOnxaZj/W1lNxu4iufMlGTmYW1Hh1ddxVbg0EigAACCCCAAAIIILCzwH/5b/9tzn3n5mngYAI0jAACpxA4clrEHihSbw1Xk3CNWzd5apiZxoesyCm+E/SJAAIIIIAAAggggMBhBWgdAQQQqIzAMdMikhPpTReSE4kdyhRBNN606iqaZ8g30/iUnmUoaoU3CCCAAAIIIIAAAghUSYBYrkvAqbnunXNhY77IQV3YNmI4OwkcMS1irz2jzGRA7eUtnBfIMZMkBRM12ZmYVg8p2WmkVEYAAQQQQAABBBA4pABtI4CA0+h0OtGcJhficZGDupBtwzD2I3DYtEhimhvzwUxjk3iK5T7kH5yd52ZiZ2razxBpBQEEEEAAAQQQ2K8ArSGAAAIIIIDApQgcNi1yKUqMAwEEEEAAgWsVYNwIIIAAAggggMBFC5AWuejNy+AQQAABBMoLUBIBBBBAAAEEEEDg+gRIi1zfNmfECCCAAAIIIIAAAggggAACCCBgBEiLGAaeEEDgUgUYFwIIIIAAAggggAACCCCQLUBaJNuGNQiclwDRIoAAAggggAACCCCAAAIIbChAWmRDMIpXQYAYEEAAAQQQQAABBBBAAAEEENiHAGmRfSgerg1aRgABBBBAAAEEEEAAAQQQQACBgwlUJi1ysBHSMAIIIIAAAggggAACCCCAAAIIVEagWoGQFqnW9iAaBBBAAAEEEEAAAQQQQACBSxFgHGcgQFrkDDYSISKAAAIIIIAAAggggAAC1RYgOgTOVYC0yLluOeJGAAEEEEAAAQQQQACBUwjQJwIIXJTAZaZFPn78+DU3BBBAAAEE9i1Q/V8B9j1i2kMAgYoKyK+7R/mJRCcIIIDA5QtcZlrk1atXn3BDAAEEEEBg3wLV/71g3yOmPQSuR+DMRiq/7lb/JxIRIoAAAmchcJlpkbOgJ0gEEEAAAQQQQOAUAvSJAAIIIIAAAksB0iJLC94hgAACCCCAwGUJMBoEEEAAAQQQQKBAgLRIARCrEUAAAQQQOAcBYkQAAQQQQAABBBDYRoC0yDZq1EEAAQQQOJ0APSOAAAIIIIAAAgggsDcB0iJ7o6QhBBBAYN8CtIcAAggggAACCCCAAAKHFSAtclhfWkcAgXIClEIAAQQQQAABBBBAAAEETiBAWuQE6HR53QKMHgEEEEAAAQQQQAABBBBAoCoCpEWqsiUuMQ7GhAACCCCAAAIIIIAAAggggEClBUiL7GXz0AgCCCCAAAIIIIAAAggggAACCJyfwKZpkfMbIREjgAACCCCAAAIIIIAAAggggMCmAldSnrTIlWxohokAAggggAACCCCAAAIIIJAuwNJrFiAtcs1bn7EjgAACCCCAAAIIIIDAdQkwWgQQWBEgLbICwkcEEEAAAQQQQAABBBC4BAHGgAACCJQRIC1SRokyCCCAAAIIIIAAAghUV4DIEEAAAQS2FiAtsjUdFRFAAAEEEEAAAQSOLUB/CCCAAAII7FeAtMh+PWkNAQQQQAABBBDYjwCtIIAAAggggMARBEiLHAGZLhBAAAEEEEAgT4B1CCCAAAIIIIDAqQQuMy3y8ePHr7khgAACCCCwb4Hd/7c+dAv7HjHtIYBARQXk191D/zyhfQQQQOBKBC4zLfLq1atPuCGAAAIInFTgIjuv/i8HF8nOoBBAYF1Aft2t/k8kIkQAAQTOQuAy0yJnQU+QCCBwMQIMBAEEEEAAAQQQQAABBM5UgLTImW44wkbgNAL0igACCCCAAAIIIIAAAghckgBpkUvamoxlnwK0hQACCCCAAAIIIIAAAgggcPECpEUufhMXD5ASCCCAAAIIIIAAAggggAACCFynwHWlRa5zGzNqBBBAAAEEEEAAAQQQQAABBK5LoPRoSYuUpqIgAggggAACCCCAAAIIIIBAioA/m839lOWHXaR7PWwPZ9I6Ye4mQFpkNz9qI4AAAggggAACCCCAAALXLeDPHqbTD8dIiySc5++m09F4nljGBwQ2FyAtsrkZNRBAAAEEEEAAAQQQQCBfYD7ut9v98QmOIMiPa59r/dlYbocY4nzcPyM9nRRZ1FtvGvvELdNWo9N1lUdipIwVZfIESIvk6bAOAQQQQAABBBBAAIHLF/BnksJor9z6s93/+L+I2/nzuZ/WZLzMDu/n45UBLD+WHcqmEfrPnue95IzJwm57OENCL0dm07BzmtpmVZAUedt0gtp21Ev+dr+v82NJp7DQ6rYJNmN8sT+f6Rxb2GCiMRIjATovOwmQFtmJj8oIIIAAAggggAACCJQVqHg5tzuJ3wbRbu5WcTc6A2mt0wj3lefj3mj0LrlrvFXDWZUaHenP3ruuFKq3hvbTZFJuKAePUIIqe1/Vy6l36rDn76YLVb+LNnQY6vLrNLy/U96o10tNDy2eEkfbzD94poHFc/hV0eObvtx1g6057N7VXkYPy0qNW9na3uMeknimY56uUoC0yFVudgaNAAIIIIAAAggcVIDGEUDgsgR835+P++O17IPJY7j3eTk0p9Ec6ExVInfhP0syxXXrKpEX0a3V9dIQz589eqreetsM0y7SmCTc4okukxdJtBJW5hWBkgKkRUpCUQwBBBBAAAEEEEgTYBkC1RP43//en+bcN4vXnusQO6XBLoj94V/vLUfn4JgTHEwPppypZ961R/ooAG9kzoSI1Va6ulkoT8m9blNPisreuKxrt+WtMu9Nq6aTDZ90X8tQl7v4pqfUCPXpG/2oSjsZ4Ia9rxfX8ZihyVOyaRNRbJy6ZBSGIJurvphC6WHrE4pi1ZUtqgVtFOazfPRn0ekpffloV9pnfz6Ljbzde3h4fJE1K+dB6TyGqt+ExwRJgZz78hCQoNDN7Z3kRaIDQ5TvSxe1mxtZ/WI70tkTtVZP1sfu5EViGLzdSoC0yFZsVEIAAQQQQOAKBRgyAghcoYDTfNuSPdfpO3u5DzOPhHK7nWB2Tdm97o08dWfPcNAnOCi1uovsNPXpNPpwAalozmsJa+u99d4oPEFCar9Meyb7sYSWRMqjujfNSy3ZCV8otQijWRYr8c6GWrNtTYbd2rKz7Agbzu3d/VsT9GQybNW8aS+ebSjRbWYRE0/u2KOq+jwSrxYgT/Q5KSaTkB12VDP3jdg+PN+a0Q277sIbxYamu5wut6srDdXuB4NOdNSGLJC7yWOomrO6zWVV4m7L1ZfpE7tAOU5NKe+D/XJJiuxpodzb4LtlGnBu6vKqQ1ueNiMLkndTqCB3kqzBJwQSAqRFEhx8QAABBBBAQAvwQAABBBAIBWxixF7uw8wjEU+KPExlP7YbntKgT3CQ5EVYs+jV5FiWJ0hIbZ2CSZxqIU2498sJShq3ruwlb3PNE9OXpGXCtpxG51729Vc7k/6S90ZjmQhwmnoai/2crmHiKRy7jUWSQUqyBeF5KuLU6YQfbIktn6X/wMMRWck3mWyLNBadumLTHU7jTau+KLSSiql3fz7T3xOVdqqN6TfIi/hzmxUxuZIgy+E07/Uml1TYqGePqTnovL2p8bPw8gVIi1z+NmaECCCAQJ4A6xBAAAEEELACnj3DRXY+5R47cEAFiZHH8fjRM5kFW97+cb/0GRRBpeWL2QtOHmkQ3yEOCiYPHjBTkYZZmKBEmRfbV+xoBalk9sg3S3KYwxKk6s53G0/iKIuUsce78Ub98Z4zAuvzpAZnrihz6ko8utzgkqxh0MuvU2/0VGt1h5N4xizqwWwFmxfRy5KbW7clm3zYbZnciCRuvOmo12vHv526DA8EdhMgLbKbH7URQOCMBAgVAQQQQAABBHIElpcOmaxevMUkRhaet0g5UCO+95zTetaq5d6zJGPsRBnxoum73PESG7xfCdUkOYKjErJa8c3sIjo0/ehNF1kFt1leMPawSX0R2rpOCeiMQFtPcJJzQklYaffXMEeiWzLnvGRti3TC4OtkTp5SN41wylTdWuJh8iK6L31QjO3CbBi9KCioj4/RJ2JF6ZHFNP2yNkF5XhDYUOAy0yIfP378mhsC1yzA2BFA4DACG/4ne4Lihxk3rSKAQOUE5Nfd4/6IsUc3yK558nKqewgi2HuWTEx0jx9VsIcedmjCzLDhqeXVYVuSntihvZWqpcfe6AwmJiegu1/oIyYOe7yEPmlGLaYPwXVnzBk/aRfhXRlP2seVpoIi8TSLzossnuazD15RFzY9YhMtsaxJ0CYvCGwtcJlpkVevXn3C7UoEGCYCCCBwRIGt/7s9WsUjYtAVAgicUkB+3T3aDxbpyOwW11tD2SFd7ivL8n3cT7h7q0/ayDsHyMywkbg67D4GHGtjo7GbnMBgIukRV5qQPIIvL4e6O+aSuoupns+j3e5Nldsdpp27ZE6uUbnj0LODSD4tZ5pckxeZTpdZEdNq+jEoMmBdXF5i96INGSvKWwTSBC4zLZI20vNfxggQQAABBBBAAAEEEDi+QJAUeds0M2/GDiJwGnf12HVENo3MVt9s/37bC/TavuwUFmGc+qSNouMTpGz8zBuz/y3Ldr7beDYbe9CpnR01+FD2ZePA5+ORJ4mw8AieQTA161p/JkdRMA5zwIiyk/YGDZh4Illz0oxK3xa+vVBvUG/5ElVWquSGXNblHQIrApVMi6zEyEcEEEAAAQQQQAABBBA4jYBJioQXETFzjCwTI/aj3t+1Ry7oiThmwcVWV6M1u77BYQXBrq6tro8/CebKkPr9/jijAd2g7AAv8o880KXSHraveKiy36/q8YujrEVocxfRBVh8nSqQtpeHMZgasmSLu42n3NglFzSeBURKBcew3IWTdZggkrAqkazQqo/eZjGak1yWA82pnOgqo5wdrIokV4s5jfuW67rRkOx6Pab5uNfryVciyo3owYw8FZ/jRr4UGSkV2w7PlRc4fYCkRU6/DYgAAQQQQAABBBBAAIHTCyQnAG2by30ESZFuNN1HeEpEMO2E0xwMu+6LuXhqu90bPb08K5siWR2P3jV2lT0ro/cQ7OTb6uopT6tMxwAAEABJREFUrP/4VLu7tReFXa1vPss+eF12gVtvGubjRk+2r5fH4LyQ0Ys+LyQalzS1HqGu0gqDbj98uBkOhy23Hu3ea4y6OdMkL5ejVmFtYd141y0xdt+5rb08BXEL8lPyjJb1sGUsjY4EGmg/PKr7t1195o2sKHk3jdYTgfdjqZl4K+ZYkILjRZSWiuWzTNYl1og+QSh+0WGT6tHrG51ht1V7eXywW01GL1+RVuKEHpMViae3dL2qPoirogKkRSq6YQgLAQQQQAABBBBAAIHtBP7wH/xKzj2lTdlDD8+WiL3quSTsmnjyQDU6uoxeaVty9HygepF+DKKzLUzNZSkp6zQ7A11GHrHlunq4eCLVm+FRELIrLctjJaUJ6Xx9mV6efJgQV2rqEsm+1s8LSYkwvqjTdBzzedl0OPaEkO7KPgyCjDd5jwon4xl00sfumGIy7qAVQYqMTDcmJrtyGdly4WAg7RqSqOMUW1NgWV1KRFtLNz3s1vRMrzajY3qNnnQKRZJDQaJMFutRTybLzmSRki2nmwkWppYwxeyTWW+D0RmTwSAxehmOLSbP5gged5m2k0XcEdhYgLTIxmRUQAABBBBAAAEEEEAAAQSMwAU++fPZeBxchCYcXjCjiT6xJVy0fF1LjCxXHfYdSZHD+l5P66RFrmdbM1IEEEAAAQQQQAABBLYWoOK1CDjq2fOmD8vpTJSSTImenqS+Mv1HJCKJkW73PnkQS7TycG8ab7pdjhQ5nO/1tExa5Hq2NSNFAAEEEEAAAQQQKCNAGQSuW0DP6OGq5XQmaVN6rAo5jcbRsyJK6V5XI+EzAhsLkBbZmIwKCCCAAAIIIIDApQgwDgQQQCBFYGU6k0ly1peUCixC4JwFSIuc89YjdgQQQAABBBAoK0A5BBBAAAEEEEAgRYC0SAoKixBAAAEEEDhnAWJHAAEEEEAAAQQQKCtAWqSsFOUQQAABBKonQEQIIIAAAggggAACCOwkQFpkJz4qI4AAAscSoB8EEEAAAQQQQAABBBDYvwBpkf2b0iICCOwmQG0EEEAAAQQQQAABBBBA4EgCpEWOBE03CKQJsAwBBBBAAAEEEEAAAQQQQOCUAqRFTql/TX0zVgQQQAABBBBAAAEEEEAAAQQqJ0BaZO+bhAYRQAABBBBAAAEEEEAAAQQQQOA8BHZJi1R3hB8/fvyaGwIIIIAAAvsWqO7/fGFk+x4x7SGAQEUF5Nfd8N89rwgggMAxBC64j8tMi7x69eoTbggggAACCOxboPq/EOx7xLSHAAIVFZBfd6v/E4kIEThTAcK+NoHLTItc21ZkvAgggAACCCCAAAIIIIDApgKURwABESAtIgjcEUAAAQQQQAABBBBA4JIFGBsCCCCQJUBaJEuG5QgggAACCCCAAAIInJ8AESOAAAIIbCRAWmQjLgojgAACCCCAAAIIVEWAOBBAAAEEENhdgLTI7oa0gAACCCCAAAIIHFaA1hFAAAEEEEDgQAKkRQ4ES7MIIIAAAgggsI0AdRBAAAEEEEAAgWMKkBY5pjZ9IYAAAgggsBTgHQIIIIAAAggggMDJBUiLnHwTEAACCCBw+QKMEAEEEEAAAQQQQACBagocLC3iz8b9drvdn/nxgftzs1RWtPv98TyxTqn8tfF2eI8AAghUVICwEEAAAQQQQAABBBBA4IwEDpEWMdmN3tRbrDj4s35v5NW6w4nchnfKG/XG86hM/tqoGG8QQKAqAsSBAAIIIIAAAggggAACCJy7wL7TIjolIrmPRd3tttwkzvzddKHcbqfh6OVO822rLpmRMDGSv1bX4IHAyQToGAEEEEAAAQQQQAABBBBA4CIF9p0WcZybmtsdTgZB9mOJNv/gKVW/MTkRs9Rp3NWVevHNmTT5a015no4hQB8IIIAAAggggAACCCCAAAIIXI/AvtMiyml21jIimtP3X+Sl5izTIspxakotnvQMI/lrpeL+77SIAAIIIIAAAggggAACCCCAAAKXL5A7wr2nRbJ6858XyYNFEgXz1yaK8gEBBBBAAAEEEEAAAQQQQAABBFIEWLS5wNHSIpuHRg0EEEAAAQQQQAABBBBAAAEEUgVYiMCeBEiL7AmSZhBAAAEEEEAAAQQQQACBQwjQJgIIHFLgaGkR56au1OLZzK+6PqD8tevlC5a8vLz8KTcEEEAAAQT2LVDw308FVu97xLSHAAIVFZBfdyvwI+cAIdAkAgggcHSB46VF9Pyq4XVn7DDNPKv1u4aj7OyrmWtt8Q2ea7Xar3BDAAEEEEBg3wIb/Fd0oqL7HjHtIYDAwQR2a1h+3T3Rjxm6RQABBC5N4GhpEdW4dZOHi/jzp4WyWRFVsPbS1BkPAggggAACCCBwPQKMFAEEEEAAgQoLHC8tohpvWnXljcZzcyKNP3uYLpR733SsTv5aW4ZnBBBAAAEEEECgygLEhgACCCCAAALnJnDEtIhymoNh130Z9dpy6z0ptzvsNCKw/LVRMd4ggAACCCCAQAUECAEBBBBAAAEEELgIgQOmRRqdyWQyCI8GsVpOozOQpfo+GHT0rCJ2uX3OX2vL8IwAAggggMBxBegNAQQQQAABBBBA4HIFDpgWuVw0RoYAAghcqADDQgABBBBAAAEEEEDgygRIi1zZBme4CCBgBXhGAAEEEEAAAQQQQAABBJQiLcK3AIFLF2B8CCCAAAIIIIAAAggggAACGQKkRTJgWHyOAsSMAAIIIIAAAggggAACCCCAwCYCpEU20apOWSJBAAEEEEAAAQQQQAABBBBAAIGdBSqfFtl5hDSAAAIIIIAAAggggAACCCCAAAKVFzhNgKRFTuNOrwgggAACCCCAAAIIIIAAAtcqwLgrJEBapEIbg1AQQAABBBBAAAEEELgEAX/W7/fHM/9gY/Fn4347uPVn84P1c7SGZUDj8XheWmyux9/foMLRRrLeUeklWwxqiyqlw6Hg9QiQFrmebc1IEUAAAQQQQAABBBBIE5AsRpBiiL30d8tqLBYvaV2lLPPnc790OkDXl3B7U6/WHU70bfi20dBLt3xIY2bQK8Odj2XpeMN8y5Yh6Gr+s+d5LxsxKLXQNUs8NhYu0eYGRTKIlTFut1fkyw4qFsAWVWK1eYuAIi3ClwABBBBAAAEEEEAAAQSUcrs6yxA9Bk0nU2WPK+bj3mj0bqN8gP8s+8HubcPG5zj2dceYFtN3x0uC7BirVG90BrKlOoGBLMi+byGc3dguaxZPiaNh5h8809riOdz6GwzK1JSnLapILe4IJAVIiyQ9+IQAAggggAACCCCAwFKAd1chUHddpbzH3Y6PuQqpjEH6vj8fZ502pdNYIlxXibyIzoqYpRlNshiB4wmQFjmeNT0hgAACCCCAAAIVFiC0yxH4qz/+b3PuG4/TnAMxnit/OZ9HXz4m20msnM2fV9bKPvNyLhDZfdaHDZh22yN9yIA3autb2Ko5uyJ+boUtOp7b17Qquj+9Z66b0Q/pIzwGQSnpfe1cDV1h+bi5kbxI0QEjme0LjYxOok8oxA8+MYHnFViGEn9X0GOMSJeUGPTQZagy+hzhTN6w6xLR+vNZP+qv3e49PDzqk6ayz4a6ub2TvEh0YIjyfSlfu7mRPl/CWqbf2KBUSdhlFdOCfE/mMz33itYQCvkiaB79SWwSU96UpZDhlmtQhsP9DAUuMy3y8ePHr7khgAACCCCwb4Hq/0e/7xFfanuMC4GzF5Bfd4/8E0kSFw/Pt28ncht23YU3Wu6Kmp3X3tRTLTvZx9vb56m3iMWnz+Lwand27WR4f6fM3rHT1OeBdCUfEZ6/0ymaJCSniuwQ90Yvd3bCkWH37mXaa0seQocx/6DDyU96NN606rkHjOS0r/uQRy6RrFeFBXSh5aO4x6js/oSjJnOj1f1NVbBF5fsgtWr3g0GnmXZSj0mAKOU4NQH+ECSL/PnTQrm3RRtcGpZKo3b2d8+USD55o96j/a5KaAtv2uv3Hx5v7He3peRz8L1I1sr5tPcGc/pi1UkELjMt8urVq0+4IYAAAgggsG+Bk/xXvVGnayNmAQIIXKaA/Lq70Q+HPRSut94GM1k4jVtJZSxnhFDzd9OFkvXBZCROozPUOYawU8lKKNkDDtYqp9HsdMIPYZldX/3Zw3ShQ7D75dLHWwkhOC1G4pWUR731Jm8n3Gne61FlzDCS234YvPSfRWSLFBawxcxzqR5NSaUOI5wZrT979BLbW1JKi8A6iCjtRTaDpDhsXiTMiphcSeyrlFZP6b7yYVeqRZHbr6paSM7GfuOcxp18FaLDU1bqZX7ce4OZPbHiNAKXmRY5jSW9IoAAAgicUoC+EUAAAQR2E/DsmSzBuQYr82zU72zCYdlFtG9pdsrX1y9L6nfeqD+ehydL6AV7fZi9bFVzYpOvxne4G3p+0rwpZM2Oec4BIwXt27GsE0REJQvYYua5VI+mZPi0b+Hs4ei5QhLYceswnOVrVDyWF9HLSh4rIlmR7O/espfYu7XIS/cUayT+du8NxhvnfRUESItUYSsQAwIIILCRAIURQAABBBA4gEDiSjR5SYRk3/YciURKIlmg0em68if6hTfq9STn0h/P9LwXyTJ7+ZTI69hJSzZqNzhgJHm9lFgLu7Yfa6rk25I9Hk04FnY85WO+AvWbWFIqVjD21uRFdEWdSbPlnRv5auhFsWK8ReDYAqRFji1OfwggsIkAZRFAAAEEEEDg/AX00RrDbsutyy6wWnjTUS8+M8nexpfI60zMrXC2kmTn5oARMwmJ2V1PrgxnQDENB08btr/SYOHH0iM6krANOFB6CA4oMqf7qLUjKmxZZedWtTkQpfMii6f57IOXXT6sxysCxxMgLXI8a3pCIFeAlQgggAACCCCAwDkKmDMoVOEf/J1GszMYTCbDriujlH1jX172ey+Mobg7e8BIxjwZe2i/OIJEiY16PIJwEJzTHMhWXEz1wT/tdm8qCaNhucOLTF5kOl1mRcy3x5zDFLTNCwInECAtcgL0q+8SAAQQQAABBBBAAIHLETAHVpTesw1mwdxs+HoqirwadibNzFxL8QV6l40Hh0I8Pi0XKVXQfrzont7v0OPmwkW8a2Oaj0dePbjw0GQyGQQToq6V0wtM49E5VubLkjZdiC5agYeJtgJxEMJxBUiLHNSbxhFAAAEEEEAAAQQQuHCB4AiL0dhOGeLPZ/2HaewCvZKUiE0nYi5jEjuFwuwnB0dF+MGcrPqYAhUmOXR7j16BodPUV55ZTB/CeUt0rX5wIdZ5iQv0Ltu3w1ksYiOQvEhe+8u6278zDPHquSOKF5T3Gwpvzit9xO9mLpHSibB4TUkw3bdc112ZRDXY/omSR/mwM8VRoqSTgwvsKy1y8EDpAAEEEEAAAQQQQAABBA4okJzfs90uP/9HozPstuovI3NSxcPj8/3brj5TxsbqO7e1l6dHs67dbveekqdc6N1/V9nzMXoPNrOiGp1hK1z48KgS7dlW156d5kCfn0gt0ZMAABAASURBVPNkg2j3Hp9qd7d2ElDZ960rVXCB3liDUj72KXib035QYqcXnYypm9NSglyOTsVkjijZ1cbCW/AmejTbrJ74vmROpGtSKLHa+lSf+AWa1/JBsbJHeLsrxRFCrGYXFxYVaZEL26AMBwEEEEAAAQQQQODaBf4Xv/p/y7mn6Mgu/2T9Fs4WYdaGH0ztRkdKJ5bIzq6eOEQWTwb6lApdIijgOI3OIFwpBcx600zw5DT19XNlzWQSVJEVy4WDQbMhTcj6cH5T3fgk/CBlw7uUWvYj3Ug9u0oCiLdtFwbPZnQrrZkOYh2GRaWdgSw293j7yjSyDF7KmyaWSwoLKEkF2bbjA8scUaLHLYTzeE1CZsVrZTjSfbTNtMawW9MT6UYZHQEI72bkK77hOv1q1gdQ8fd6XYlIVqqsfNSqEl+MdK1AbCjr3zQdgGyVIDwTkpHIbdAU4+m8BEiLnNf2IloEEEAAAQQQQAABBBBAYP8CJVv057PxOLgITVglmM7kZOfChHHwisB2AitpEd+fb3cLTgPcLghqIYAAAggggAACCCCAAALHEaCXXQQc9ex5y0lcdFOSKdGzv9RXZgzRq3ggcA4Cq2mRd6Ptbu/2f4Gtc+AjRgQQQAABBBBAAAEEKitAYAjsX6DRMZO4RLPFtM1ELq3uMH6uyf67pUUEDiewkhaxHdVb3fK3Vt1W4hkBBBBAAAEEEEAAgRMJ0C0CCBxNwEx5Mpgsb4mJVo4WBh0hsC+B1LRIzWmUvzm1fcVCOwgggAACCCCAAAJFAqxHAAEEEEAAgT0KpKZF9tg+TSGAAAIIIIAAAlsKUA0BBBBAAAEEEDi0wEpaxFxvKOf6SSnhbFElpRUWIYAAAgggcM0CjB0BBBBAAAEEEEDgJAIraZHNYtDXrWGq1c3MKI0AAghcuwDjRwABBBBAAAEEEECgOgKFaRF/Nh6PZ/OU7Ic/e+iNRu/m1RlMFMnHjx+/5oYAAgicWoD+L08g+o+msm8uz5wRIYBAqoD8ulvZH0QEhgACCJyXQHFa5NnzvOmHlLSIYyZb9T5UMC/y6tWrT7ghgMARBegKgSsRqP7/8VeyIRgmAgjIr7vV/4lEhAgggMBZCBSmRbJHMfdfsleyBoFLFWBcCCCAAAIIIIAAAggggAACFyOQmRaZj9vmNvL0WL2R+ZB4Gk0Xssq9bcgz90sUYEwIIIAAAggggAACCCCAAAIIXLZAZlrEuXHr+hYOX79fe7jdYecSsiLhIHlFAAEEEEAAAQQQQAABBBBAAIHLFVgbWXZapNkZ6FvX1XXcrn6/9ug0HL2WBwIIIIAAAggggAACCCCAAAIIVEmAWMoJZKZFltX1MSLLT7xDAAEEEEAAAQQQQAABBBBAoEIChILADgKFaZGGOWgk/VQZ35/PUy5Rs0M4VEUAAQQQQAABBBBAAAEEEMgSYDkCCOxboDAt4s/G4/EsLfvhzx56o9G7+b5Doj0EEEAAAQQQQAABBBC4egEAEEAAgaMIFKdFnj3Pm35IOSjEcWoSoveBvIgwcEcAAQQQQAABBBBAYEsBqiGAAAIInE6gMC2SHdrcf8leyRoEEEAAAQQQQAABBFYF+IwAAggggEDFBDLTIvNx29xGno7YG5kPiafRdCGr3NuGPHNHAAEEEEAAAQQQiAvwHgEEEEAAAQTOQSAzLeLcuPoSNPVwEObD6pPbHaZPxhrW4hUBBBBAAAEELl6AASKAAAIIIIAAAmcrkJ0WaZpL0Ay6rh6b2x2k3ToNR6/lgQACCCCAwHUIMEoEEEAAAQQQQACByxLITIssh6kPEVl+4h0CCCCAwFUIMEgEEEAAAQQQQAABBK5AoDAt0jAHjaSfKuP7KReouQI0hogAApclwGgQQAABBBBAAAEEEEDgWgUK0yIWxvfnq7fZuN/r9dr9GakRa8QzAmcgQIgIIIAAAggggAACCCCAAAIxgRJpEX/Wb/d6o9Xb1FsoVXfvm0wvEvPkbWUECAQBBBBAAAEEEEAAAQQQQACBIoHitMj8nbkQb91tdVt1VW91zc3Vl6hxu2/Tz64p6vXQ6z9+/Pj19dwYKQIIIIDAsQQO/f/X7u0fS4J+EEDgxALy6+7uPzFoAQEEEEBABArTIvMPnhSrt952mg2npmpOw9w6g2Gr7o1647msPda9dD+vXr36hBsCCCCAAAL7Fij9H9HJCu57xLSHAAIVFZBfd0/2g4aOEUAAgWMIHK+PwrSIDaXmrJ0q4zTvXaW8R+YWsUQ8I4AAAggggAACCCCAAAIIILCpAOVPLFCYFnFu9OkyNkp5/7J68ZnFM1OuWh2eEUAAAQQQQAABBBBAAAEEsgVYg0AVBYrTIk5N4rbZEMepLaYPweEh/uzRnF5zs3YciZTnjgACCCCAAAIIIIAAAghcrQADRwCBsxEoTIuoxq2rVHBMSONNq76Y9tr61rMzsd41SIuczdYmUAQQQAABBBBAAAEE9ixAcwgggMB5CxSnRVSjM5lMgivOOM23XXMRGjPqutt92yQrYix4QgABBBBAAAEEELhwAYaHAAIIIHCBAiXSIslRO43OQNIk5j7ocKhIUodPCCCAAAIIIIDAJQgwBgQQQAABBK5FICstMp/1x+PZfL46w+q1uDBOBBBAAAEEELgOAUaJAAIIIIAAAlctkJUWUc8Lz5uORj07kUhfJ0lmkiThsjNX/XVh8AgggAAC5yxA7AgggAACCCCAAAKrAllpkUZnMhwOu92W69brdbXQSZKpJElMliRIkkiWZLU5PiOAAAIIIFABAUJAAAEEEEAAAQQQQKCUQFZaRCo7jtNoNDudwcBMJmKzJCZNEiRJJEvSbrfHcynLHQEEEEDgNAL0igACCCCAAAIIIIAAAtsL5KRFVhq1WRKTJplMJsNht7W8JM1KUT4igAACBxCgSQQQQAABBBBAAAEEEEBgzwLl0yJK+f58Nhv3+2259XqjqbeQYOry4I4AAvsVoDUEEEAAAQQQQAABBBBAAIFjCBSkRcJMSJQKkVzIol533Va3OxxO5DboNI4RJ31cqgDjQgABBBBAAAEEEEAAAQQQQOBkAllpkfk4kQlRiUzIoNNpNhqOc7Koz7JjgkYAAQQQQAABBBBAAAEEEEAAgWoJZKVFlNJnyEisbqvVHQ4Hm2RCpBZ3BBBAAAEEEEAAAQQQQAABBBC4cIELGF5WWsS5NdecUcqbTu0VZ9r9/ng2m899/wKGzRAQQAABBBBAAAEEEEDgUAL+rK93Hg634+DP7MHtbbn1ZxdwaUwZ0Hg8npcWMwf39zeocKhNXcl2RdOc+yDfjnaJr4cvmrKvm40v7ZmtU8nBEtQeBDLTIo3wmjP6ojNdnSNRC50iSeRI/IrmSD5+/Pg1NwQQQAABBPYtsIf/eA/cxL5HTHsIIFBRAfl1d58/TiSLoXcgk4/+LHs3sUTni8VLiVK6iL/pX14l3N7Uq3XNVIeT4dvGLpMdSmNm3CvDnY9l6fh4+Rb/2fO8lw3Fg+P7NWLuY2NhldvchitDYQFd3le4N2wyt7j0t+nXw3/J/7putXVyg2RltQSy0iKxKB2nsZIjabl1myPp9XrtI/6wiAWV//bVq1efcEMAAQQQQGDfAvn/+1Rh7b5HTHsIIFBRAfl1d/8/c9zuJH4bNI8yleB83BuN3m2UD/CfJR/g3jZsfM5OUx5GjIvpu+MlQaJet37T6AxkY3UCg9xmthDObW+7lcf7dh3k67HdoKl1LgIl0iKJoUiORLIkt/d35viRxCo+IIAAAggggAACCCCAQEUFCCtHoO66SnmPux0fk9P+xa/yfX0iyhjAi9/SFzrAMmkR+Y7PZ7PxuN83Z2j1epLQnU49b6Hq9bp7Y7O0F+rDsBBAAAEEEEAAAQTOTIBw/3//9euc+8Y+/kz2AsZz5S/n8+jLx2Q7iZWz+fPKWj15Q3gGhZ51RE+iYdptjzwp6o3MyrBVcwZL/DQLW3Q8t69pVaQRpffMTTvylJgqQnpvt+Pt6dKJx82N5EWKDhjJbF9oCohM4DK8BFPx0SkFPcaGpEtKDDJyuRcIZ/KGJCWi9eczu3Mo3cm99/DwqE+a2nyOhaAvaS+cLcZuOj0gaVju9vNKbHp1OF75NtqjjUxbqd8o890Iy7eTLYYtK9mMYQxSZOets/nmXkbCuyMLZKVF5B9smAZpR2mQhU2EtFrd7tCcyTcYDDrHObjuyCx0hwACCCCAAAIInIEAISJwNAFJXDw8376dyG3YdRfeKLZLLruT/d7UUy2zizB5e/s8lb+gLkPTZ3F4tTu7djK8v1PPejfWaerzQLqSj1DBGRadoklCcqrILnFv9HJnJxwZdu9eptHp/vMPOpz8pEfjTauee8BITvvBSHOJdJnCArrQ8lHcY1R2f8JRkyovWt3fVAVbVL4PUqt2r3cNy5zUI4VX796o92i/XdLYwpv2+v2Hxxv7bWsp+SwphngdXf7m3q4338aeKZD19TCSXu3efgOH3VrsyxE1u5j2sr/hUanojWkz/fsWlMkDDIrwUhWBzLTIs+ctJA2iVL3uupIIGcYSIc1GYz9n8FVFgTgQQAABBBBAoOIChIcAAicWqLfeBjNZOI1bSWUsTGrDBDV/N5U/n7beBn8vdRqdoc4xmHXyJFkJpdzbYK1y9LyF4QdZvZe7P3uYLiTEpt0vlz7eSgjBaTESr6Q86q03eVkXp3mvR5Uxw0hu++EIpP8sIluksIAtZp5L9WhKKnUY4cxo/dmjp2RtsBEdnVJaBNZBRJu+SGuWzn651EKyLLZ5p3EnG+9l5TAUtzuINnVxQku+G5J5sx0o+QJ29KZeCziKQUqsfMPXhlNq62zS4FoPLDiqQFZaxHnTjRIhnU5TvnQOJ8scdcvQGQIIIIDAtQowbgQQQOA0AvLX7XZ0ix8MosOp39mEg35vH9GeqtkpX19vS4XP3kif6qAPEgmX7PPVnz8tlKrF91gcp6ZUkLtp6PlJ86aQNeX03n3GASMF7duhrBNERCUL2GLmuVSPpmT4tG/h7OGYOU3j2HHrMJzV182+Xe5tXgpL1eMTOdjEidmEq53qz1YyUUNJoky+HE/6VC5dxDyyx2tWJ55sm3ECtW6wSYOJ1vlwfIHMtIjT2NOczscfEz0igAACCJyJAGEigAACCFRIIDiTZWJueUmEZMy+ryeVSOwiJgs0Ol1X/uC/8Ea9nqRd+uNZYnc0WXiXT4k9bzvFxEbNBQeMJPeWYy3s2n6sqZJvS/Z4NOFY2PGUj/kKJBMPsZL27ZbfLlu5zHM8oPXyK99P50Z/I5cHPK1XKLGk5NYp0RJFTi2wkhaZ6wlFJJG7QVhbVNmgdYoigAAClyHAKBBAAAEEELheAX20xrDbcuuyL6oW3nTUWz0YZS82iT1vk9yZFM5WkuzYHDBiJiEx+83JlWr39lcaLPxYuscjCduAA6WH4Loz5oQStX5shC18wc+lt84FG1zK0FbSIkot5LZn39cnAAAQAElEQVTh4KTGYsMqFEcAgcsVYGQIIIAAAgggcE0C5uwBlf+3evFwGs3OYDCZDLuufFpkHpIhK7e9F8ZQ3LA9YGRt2glbcQ/t24ZKP2/U4xGEg8Cd5kC24mKqD/5pt3tTSRgNyx9eFDSy75eV40HymzfnARUc35LfgqzdaOtIee7VFVhLi9hQ/fI3W4FnBK5RgDEjgAACCCCAAAIImAMrMqd2WPUJ5tRcXZz/2ezF5hQJppfIyrXM9XVXSx6gEhwK8fgU766g/XjRPb3focfNhYt418Y0H4+8enDhoclkMghnM10reIwFdqKPzNlIrKT3IX7B3VLT4eTEbts8SG4vp1dWHU4gNS2iT/vrlb2Zy4aXDDB2Oep2uz8ODruKKuurT7ftrd8fH+iUw6g33mwiQFkEEEAAAQQQQAABBFIFgiMsRsHv7/Irf19f+iMqK0mJ2HQi5jImsVMuTFIl+Lu7/GnW1ErMiKnbe/TM8uwnp6mvPLOYPoTzluhaskdhashO8EIpc26M+Zz/ZIezMBfljErmth+V2uGNYYjX36THDYU3540HJu/NXCKlE2FSYd/3+IbW1yBSeZcZspJe+P1UstMpu7B1995e6qZMbDttnTIdUObEAitpEefG3e4Wnws4a0j28tb34eWi9bXEYzlbc+VnrxZcafxOSW7GXH06q7VDLaddBBBAAAEEEEAAAQSuUSA5g6T8FXP1j5iZKI3OsNuqv4zMSRUPj8/3b7v6TBlb3nduay9Pj2ad/AW095Q85ULvtLrKno/Rewj+MtroDFvhwodHlWjPtrr27DQH+vycJxtEu/f4VLu7tdfSlDRAXeXuOSdbk/LJBfpTTvt69a4PnYypm9NSon2g0j1uLLwFb2J8ZpvVE98X+ZN3sO0SJZcfEqXlexDbEVwWKvuu7t49B98ofQpPq+AUHiv5EtYYvbjd4WCTaWd22Tplx0S5EwmYblfTIs3OdrfiVJvJC+s0nv3h5DSa924sZzt/N13IT8jg+Cv9L60umZHoh4IJlicEEEAAAQQQQAABBBAoEvhf/c77nHtKbdltnKzfwtkizNrwg6nd6EjpxBL55V5PHCKLJwPZ4XR0iaCAIx8G4UopYNabZoInp6mvnytrJpOgiqxYLhwMmg1pQtaHO7K68bTJVKXUsh/pRupJS3LXE5LG2pYly7sZ3UprpoNYh0HpzPaVaWQZvJQ3TSyXFBZQygS50mm5HrcQzuNVxcOREtE2k5Anw25NT6SbvvNmxq5LJR6hjVkbfhA4cZBy4aaWBWsFZJm6CbWk7KCT3Bc19LEGdHmVlAx2Os0aeVrvwrSRjGogXU0SX5RkmxJGdA3rEg1Kt8e+01+2wEpaJLvgzmvyz1ibf/Akgxs75sSerxUcTrdz5zSAAAIIIIAAAggggAACCCCwq4A/n41XZ0MIpjOpys7brkOk/tUJHC8tYo5Fi09LE8+EmNPTVGL2YDOldbz81W0bBowAAggggAACCCCAAAIIZAqcYoWjnj1vOYmLDkEyJXr2l/pddLiEXsoDgbMROF5aRDU6Xbeuz5fr98ez2bg/8upuNzgyyRxKsusVks4GnUARQAABBBBAAAEEEEBgAwGKVkeg0TGTuAQzdbTlpidyaXULJvjY1wCcmuveOftqjXYQ0AJHTIso5dze6cmO1MKbTr2FqtdiJ83oYHgggAACCCCAAAIIIHDdAowegcoLmEk17FwbZsINPZ9MNJHLgaOXvjudY3V24LHQfGUEjpcWMVeamarW0MyDJBnGumRHeu30eXl29Hl5eflTbggggAACCOxbYMf/no5Qfd8jpj0EDilA2zsIyK+7R/iRQhcIIIDANQgcLS1irjRTb70NpgmWLN9g2Kor5T3qC385N/J28ezvibxWq/0KNwQQQAABBPYtsKf/pg7YzL5HTHt7EqAZBPYtIL/uHvBHCU0jgAAC1yRwrLRIypyqyl5sxiRDzPyqKjF1sanBtD3X9GVkrAgggAACFyDAEBBAAAEEEEAAgbMSOFZaJCXvoVRsolV7nZrY4SL+/GmhyIqc1ZeJYBFAAIHrEmC0CCCAAAIIIIAAAucvUDIt4vvzrJtf7syXxptWXS1iV3Ly5+ORp6LTasx6bzSem+b82cN0odz74JSb83dmBAgggMA5CxA7AggggAACCCCAAAIXKlAiLeLP+u1eb5R1e2fyGMU8TnMw7LZqT6Ne29x6jy9u/CpOZr37Ylf3npSs7DSKm6UEAgggsE8B2kIAAQQQQAABBBBAAIFrEihMi9jjNpSq19302wYX2XUazc7yQk6DQaeRvOC0nofVXuJJX+NpZeU1bRXGisAxBOgDAQQQQAABBBBAAAEEELh6geK0yPNCkOqtt4NO+o3zXMSHe7UFiA4BBBBAAAEEEEAAAQQQQACBNIHCtIitVHOSx3XYpTxXToCAEEAAAQQQQAABBBBAAAEEEECgtEBhWsRMhaq8D/PSTR6nIL0ggAACCCCAAAIIIIAAAggggMDlCxx2hIVpEeU0B123Hl0j5rDh0DoCCCCAAAIIIIAAAggggAACVyrAsE8gUJgW8Wfj/uOLRObZa8SYq8jEn8YcRyI63BFAAAEEEEAAAQQQQAABBEoLUBCBqggUp0WevYXcqhIvcSCAAAIIIIAAAggggAAC5yRArAggUGmBwrRIozPJv3UalR4gwSGAAAIIIIAAAggggMBxBOgFAQQQOD+BwrTI+Q2JiBFAAAEEEEAAAQQQOLAAzSOAAAIIXIgAaZEL2ZAMAwEEEEAAAQQQOIwArSKAAAIIIHDJAulpEd/3L3nQjA0BBBBAAAEEEEgRYBECCCCAAAIIXJ3AelrEn/XbvV6v3Z+Z1Mh8HL/sTMp7rkRzdV8aBowAAggcR8AbvP5W7Pb6i6+e1bM3+MIu+2IgH48TyEX2wqAQQAABBBBAAAEEtEBKWuR5oVeoxbNJi5j3PCGAAAIIIHB0Abf//sfh7b/53/1Hn77+NfXV737vZ6//QC/8g++qL78z8EoERREEEEAAAQQQQAABBDIF1tMijc5w2O12h0N7iZmzvBLNx48fv+aGAAIIXJ3A5Q74T37/v//Rf/Krf+cXf/E/H/3h6D//RT3QX/zb/9n/Vv3oj/5Ivz/eI/O/08qsOJ4FPSGAwEkF5NfdyvzgIRAEEEDgvAXW0yJKOU6j0XCcMx7Yq1evPuGGAAKXLMDYrkvgL//1H//5p9/+9jcTo/7L/++LUn/jyD/uq/9fY8KIDwggcLkC8utu9X8iESECCCBwFgJpaZGzCJwgEbgWAcaJAALPP3n/08+++/lNQkIvVJ/9uptYyAcEELgEgbR5hfS49NxCr80sQ/pT9NCL7ZRDr7/gzLqIhTcIIIAAAmUFSIuUlaLc4QXoAQEEEEgT8P7Jlz9dzX88f/W7svD7fbIiaWIsQ+DMBdbnFbpRz18NvvjO936WMrLnn/yrX/6unXLo+9/40ff03MwppViEAAIIIIBAlgBpkSyZgy6ncQQQQACBsgLev/rR6lEhJEXK4lEOgTMXeP7qBz/69PWvSVbkJ+/Vd3/4/rdff7o2opvP+5+75miyG/fXP1tbzQIEEEAAAQQKBA6dFinontUIIIAAAgjkCkhW5NMvfiN2VMizN/jOl9/4/g85UiTXjZUIXIKAPlnOZEXUzedf9m3uI2dcURIlpwyrEEAAAQQOKHCmTZMWOdMNR9gIIIDAVQis7eVITuR7P/tCciLmb8NXYcAgEbhaAZ0VWZtXKF3DTEfym1+qL357ZRqi9OIsRQABBHYVoP4lCZAWuaStyVgQQACBCxN4/oufq8/0AfTBuCRL8i/++q//7B//ZjC94vrci0FBXhBA4PwF0uYVyhqV23//4x//wfdfv/8Oc4tkGbEcgW0FqIfAxQuQFrn4TcwAEUAAgfMVuHH7X/Zjf/u9+fzLH8du799/GVt5vsMkcgQQSBHw1ucVSikVX3Tj/trrT3/6/ifP8YW8R2ADAYoigMB1CpAWuc7tzqgRQAABBBBAAIEqC0hWJDmvUJWDPcPYCBkBBBBAIBIgLRJR8AYBBBBAAAEEEECgEgLP4SVoMqN5/uqL1/o8Onn94ivPHCDyrE+7sVO0xqrxFgEEEEAAgXyB/LSI789m435/PM9pxJ/rm+/nFGEVAggggAACCCCAwIEFLqj51XmFcoZ282vfff3zH5gJh37zB+qLH3JqXQ4WqxBAAAEE0gTy0yKO/zz1FosXSXr489lYbrN5PP/hz/rt3kjfer3+LL4mrS+WIYAAAggggAACexCgiUsXWJ1XKBzvzedfhlMK6bfm/Y37eT+YdSgxF1FYh1cEEEAAAQTyBfLTIqpx60r9xfO7cW809eQ2HcXyH/N304WsrrtuXanF9IHEiGhwRwABBBBAYH8CtIQAAggggAACCCBwUIGCtIhybiTjoSQfUndbXbm13Ppi+s6eVDP/4Els9dbbTudtS4otnhKHksg67ggggAACCJQUoBgCCCCAAAIIIIAAAscXKEyLODUdlM59NBtya+oMiPfB5kX0GlVzHKUcU2zxzHk0xoQnBBBAIE+AdQgggAACCCCAAAIIIFARgaK0SBCmyX3Y9zYDYt/zjAACCOQKsBIBBBBAAAEEEEAAAQQQqLJAybSInnQ1GIbvvwTveEEAgaUA7xBAAAEEEEAAAQQQQAABBM5OoDAtEky6On1n5w3xzTSr3uN4Nhs/mqlFbhwZtM2V1M17+Xjq+8ePH7/mdjABGkYAAQRKCvxD9Q+qfy85Flvs1P+/Ffdv4+QZAQQuXkB+3S3+iUAJBBBAAIESAoVpEdV4o6dTVd6o15Zbb+TVW92W8qZTT1+Fxr1vOsqfz5/0h9ipNiW6PmCRV69efbKPG20ggAACCOwicMAf9PtreqMB7q/bQ7W00XAojAAC5ysgv+4e6ucI7SKAAAJXJhCkRfJG7TQHw5Zbt0Xqbvdts9EcTCZDuU0mnYaSrMjjVLIi9dYb+WCL8YwAAggggAACCCCAAAIIIIAAAtUTIKKkQIm0iFRwmh1JhEzkNug09EkzepmjL0Ejb5TTuO92h5NBM1ijl/FAAAEEEEAAAQQQQMAK/F//1/+nit9tnDwfRGA+7rfb/bE9Jf8gPVxOo/5sLLfyVJdqu+m4cspfzpeDkRxQoFxapCAAp9EIkyUFJVmNAAIIIIAAAggggAAClRPw5zOdvWgHt75OY/h7jHKxx7YO0ZQ/k9yNDL4/S4x6PpZl4/khekxt03/2PO8lEUJqucTCwDaxLO2DP5/7Gzad1sy2yzKIlTGWxFlSXnopOy4pau6bljeVeEJAC5RMi/jyj2iefjvlvy09Ah4IIIAAAggggAACCCCwi8B83BtNX+66w4m5Dbt3tZfRQ/mDFnL7bpjjzqNjznPLllp5yEKL6bvjJUF2H8gGtnobj96dMC0SjnbxlPhizT/o63gotXiOxbbBuEyzm5Y3lXhCIBIokRbR8ZmU7QAAEABJREFUeb1eb5R1q8K/rWg4vEEAAQQQQAABBBBA4FIEjjQOf/boqXrrbTM8ANxp6FPoL+IUeV/+vDvuj9eOREilrbuuUt5jucKpLVz5wlxt/3mhRLiuEnkRnRUxS6+cjuGfVqAwLeLPHvR8qqou31Y37XbDjCKn3YT0jgACCCCAAAIInL0AA9irwD9U/yDnvtaV3l9N/rE+WUT/lbQ9nvvzcd+eadJOmSpEr20Ht2QawlRPnpyiC4dNtftS3B4/YE6niJc0VaXrMB7zeTxX/vKMn758DFfrV38+i6KUcHoPD48vslwf4S7xS+R5SY+bG8mLFB0wooOXls1dQo8d41AYXmEBiTTlXtBjTEyXXIM1vbZH+qAMb2TCDs3ywU09Kbqddso4ZNHN7Z3kRZYHhvi+bJ3azY2setHbSF713XS9HJf5mBeJKbBWXr4L4ZlhdkNpHgMgX+D49yDfQQIy7et/ArNyDUoV7mclUJwWkaye0tnjQSf9xkSrZ7XBCRYBBBBAAAEETitA7whUTsC50Red9Eb9mc1OpAbojXqPN/dv9Uk2w667kI+ymxqWlL3G3ig8CWfYvXuZ9mLJjLBU+KpP5/Bqd+EZO/d3armbHJbJeZVd+4fn21gky91hpZueqqBpiVOaqd0PBh19IMz8g7dQKj/p0XjTEoucA0aKR5oXnoSjVGEBUyp6Ku4xKqpHnwLr6MuITrqS8VFuV29AczXRqFb+m7xodX9Z2mutmgSIUo5TE4IPwZlK/vxpodzbUtczzYtkrTdZIF/RR/s9kS/Cwpv2+v2Hxxv7vWkp+Rz7Akvx4vveGyzukhLHEihMi9hAag7HhFgJnhFAAAEEEECgpADFEEDgPASc5r0ryQDJGIx68rd0+cN62tScbnegkwsyJGcleWAOL1+ehOM0mm8luZCZW5D0hJJd4fCPq1K80wk/SOvFd+kqmKnEadzKzn40K0V0NpDddTFxLqI4pKyMst56k7cTri2ycyelRpoZXjiywgJhQXkt1aOU0/edYXUja4/MaPO119oJF8hmiPIiYVbE5EqizRiWXH3NjGS1YPA5Km+/JmohGTL7RXMad/JViB+eElTJf9l7g/ndsfaIAoVpkeCHXpjQO2JodIUAAggggMC5CBAnAgggcNYCjc5g2G2Z3IjkBLzpqNdrx47B0GOrx0+dt7uVwX6s2bdViT+jFu/meqP+OC35orsqeNTvwjlQwoLh/q05GygeSDIOGeVkkjdjihlQsPuTNsNIqZFmhxeEW1ggKKdfSvWoC0aPHWCjNuJvsqMt0I43ot9HxWN5Eb2s5LEiSmVHoptff6yVL93Teltmyd4bNK3yVAmBwrSIcpqDrlv3RvJzqxIREwQCCCCAwCkF6BsBBBBA4CIF9EEbg8lkEqVHFtNe0VkGYTpCg3h21oq2vY30RBZ6ccqj0ZG9C5190cmXtp7lIefcnZT6BYviQZkTNxIJnYLKenVwwEjyeil6RfAoP9Kgws4vJXs8MGzqMLbRNnkRXVEf3mK3jjmPSy9K7YSFCBxaoDAtomfYMdMUeeaYOvtzLv5c9NPy0COgfQQQQOBAAjSLAAIIIIDA9QnY9IiZiEJtsp8azFohiZXo3sk6W0UftmHSL3XxXeiDU1YOTZHF29zNgR6L6UMwm6Y5ASXlIIPCpoN23s2V2V1fKb/JSFeqbvmxdI+Hgk2NO1AqqR3PUOm8yOJpPvvgbbN1UoNhIQI7CRSnRZ69hdx26oTKCCBQcQHCQwABBBBAAAEEYgJ6xzX2MeNt/HyVTVIoujmTfhnoo1Nc+Sg7ybErusiC7e7mOHe1mOopUtrt3lS53WHeWTNZvdgDRqJZSZLFNh1psvY2nzbq8SCwqVFvr62/XovpdJkVSZ7tlNobCxE4oEBhWqTRifK96W8ys8AHjJqmEdhagIoIIIAAAggggAACSQE/dmnU+Jp42iO+XNkpL4K5GoKJRjJPOknUXPsQTIe5ttws0HNPmDdln+bjkVdvBde4mUwGwdSstnrxBXptOf0cHArx+KQ/hI/dRhq2ssnrDj3mwmbFsBl4rvZKF6bl6AsVHIWzNlvHSqWTfTTRnqx3Oj6+QGFa5Pgh0eOeBGgGAQQQQAABBBBAAIFCgfm41+vFJ0D157P+SP6Sn7hmiz43JZgDJDg5JVrtmCvPxAtIA9JgRs+SnRgvLwVsrmcSnEuhDyJQ4YEjOorHnClK0lo3Z2qYiVNT1s5LXKB3Wc0eMLJy1PyGI122VvZdkC5YFt+kx2xY3Z5pOjjuJMyD7Qaeq627zH44jfuW67ork+cG0WVXO9Sa3RwOFRXtHlHgItIiR/SiKwQQQAABBBBAAAEELkqg0Rl2W7WXxwd76km73Xt8qrVWzz6pu3fPj7aEPjmllTg5xWkOhl1XPQWTEeoG7m7tVXLXqHzntvbyFDQlnT3FznRpdIYtV9lzYB4e1f3brj7DZq2JzAU6iaAvFhGbCdFcbthUkH3fulIFF+g1Je2TlLdv4s+bjDRer+R7nYypm5OAogkcS/eYByvdG5vAtvcQZLgau4CbFuuJ+WCX2tJj/G5SKLEF+lSf+HWZTdImtv7Ib3dyOHKsdKfU/g1KpEUkmZh3339MtIgAAggggAACCCCAAAJbC/w36vdy7uvN6n3UwWAQnTI/GHSaqxfBVTd6Ps+giKxfTXo4sjpqIdGA7NdPYtfFdUzJqOhEysb6cpqdYNVgIDGYE/qXJ+2vNCUjMQVi04cs65tQh92antHV5hgkwnggUnt5Ny1Plj3pNaZtaSa5VJn4ZbG5S/QSpi4tD9NILBilTBPLJYUFdA07/nin5XrMhzXhhbbxzZENXhxtnrZ0GLubtlZ8Y6v11U/j28YU38CtqLzZDjHSlfISyXIopb54xQ1Km3u408SRBArTIuagul7Ozf6QOVK4Jbv5+PHj19wQQAABBE4tUPKH9mmLbYR02lDL9L7RcCiMwNEEynx7T1vmaBT76kh+3T2tWAV79+ez8Ti4CE0YXjDBxsnOzgjjuLzXfWtfnhAjOieBwrSIUvW0mx5j3XVbre4bR7+v1uPVq1efcEMAAQQQOLVAtf5vyIhmI6SMNiq0eKPhUBiBowlU6B9JRihHo9hXR/LrbsZQrnexo549b/qwnLZEKdl319OTVGpmzwvZQGhfyIZkGEagMC3S6AzSbpNhq77wXp6dhlPBtIgZGk8IIIAAAggggAACCCCwu4BTc927jX/p373fDVtodMwEJ9G0Je30WVI2bJXi6QJop7uw9CwFCtMiWaPSM+xIYmRUxXNosmJmOQIIIIAAAggggAACexe49AadRqeTMtlIBYctkcpfdM2kH/YpMfVHBQM+65DQPuvNR/Bxga3TIko5Tk1a8j7M5Zk7AggggAACCCCAwOULMEIEEEAAAQQuTWCHtMjqVZYujYbxIIAAAggggMAVCzB0BBBAAAEEELgKgcK0yHzcT721273pQojc24Y8c0cAAQQQQACBcxUgbgQQQAABBBBA4HoFCtMiSi1Sb5qs7raGHbIimoIHAggggMA5CBAjAggggAACCCCAAAIJgcK0SKMzTL3pSYwGnWb1Z6RODJcPCCCAwLUIME4EEEAAAQQQQAABBBAoFihMi+ipVZ2UW3HTlEAAAQSOIkAnCCCAAAIIIIAAAggggMCWAiXSItkt+/587mevZg0CCOxZgOYQQAABBBBAAAEEEEAAAQT2KVCYFvFn4/F4lpb98GcPvdHoHdfn3ef2oK1QgFcEEEAAAQQQQAABBBBAAAEEDi5QnBZ59jxv+iHloBDHqUl43gfyIsKww52qCCCAAAIIIIAAAggggAACCCBwGoHCtEh2WHP/JXtl2hqWIYAAAggggAACCCCAAAIIIIDA5Quc0Qgz0yLzcdvcRp4ejTcyHxJPo+lCVrm3DXnmjgACCCCAAAIIIIAAAggggMD1CTDicxfITIs4N25d38IB6vdrD7c77JAVCYl4RQABBBBAAAEEEEAAAQQuV4CRIXCRAtlpkWZnoG9dV4/b7er3a49Ow9FreSCAAAIIIIAAAggggAAClyPASBBA4HoEMtMiSwJ9jMjyE+8QQAABBKos8OwNvnj9+lvf+tbrLwbes41UL9NLZNFXwSK7gmcEEEAAAQQQQAABBK5coDAt0jAHjZzZqTIfP378mhsCCCBwhQJ/9Dvf+d6//7vjP5zNZn/Y/S/+9i9qgj/5/X/0vT/71d+TJeO/+++//M7v/JFeeJzHWfwXuxFF9Ue00XAojMDRBCrybycnjKNR7Ksj+XU3ZzisQgABBBAoL1CYFtFNzWfjua/f2Md83Ldzr/bHc7ukas+vXr36hBsCCCBwdQJ/+c//6b/87Pv/9be/aUb+Tfvyb/7Z//Dnn/3W39Mfvvnt3/ri03/5T//5X5r1R3iq2v8OqfFs5JDaQqUWbjQcCl+wQNWGVql/JqnBVE2sMB75dTd1ICxEAAEEENhUoERaZD4eTb3HKC8iHz19CRrpaeGNqpoYkei4I4AAAtcm8Bc//+mnv6y+GnyhT6L5YmBOmHn+i5+pT3/5lwKKm1/6hvrpz/8i+MQLApcgwBgQQAABBBBAAIFdBArTIv7s0VOqfhdMrqo/ut3hZDIZturSsfc4ix1HIgu4I4AAAgicSEBnQH765Q/Ur//2+x//+A9e/+zL3zWJkRNFQ7f7F6BFBBBAAAEEEEAAgb0LFKdFnvWhITUnuOSM/7xwb02KxGne64vULJ5Ji+x9q9AgAgggsK3Ap1/89ufujdS++bXXn/70/U/OdIZVGQB3BBBAAAEEEEAAAQSOIFCYFknGMP/gSVYkuYxPCCCAAAJbCxyuoj5f5nCt0zICCCCAAAIIIIAAAhchUJgWcW7MuTIf9Nwi5gya20YwcN9/kXf1m+A4EnnPHQEEEMgWYM3BBXQiZDlxiD6lRrpcX7icaURWc0cAAQQQQAABBBBA4KoFitMijTuTFxn12u3eVJ9BE3r5+vSaaNKRcCmvCCCgIEDgRALur3+mfvQDM6HIs/dPvvzpZ9/9/Ea5v/HFp2sLFTcEEEAAAQQQQAABBBAQgcK0iHKag66rMyOq7raGnehYkfkHTyn3vsnBIsJ4vXdGjgAClRJw+z/84hvvf/Nb33r9nR+oL37Y11NAqZvPf/v7awsrFTbBIIAAAggggAACCCBwKoHitIhE1ugMJnIbdGI5EKfRGQ6XWRIpdeF3hocAAgicg8DN5/0vf/zjH79//2X/85sw4Bs3ZWG4klcEEEAAAQQQQAABBK5YICUtUlrDCS9PU7qGUv58Nu63g1u/P5vH6/rzaF2/P9azmcTX8h4BBBBAAAEEEEAAAQQQQAABBPYnQEtKpadFfN8/CM583BtNX+6GE30bdu/unPCcHEmYzPq9kVfrmpXDO+WNeuNE0uQgEdEoAggggAACCCCAAAIIIIDA5QswQgQyBNbTIv6s3+71eu3+zKRG5uPg0MV0wz8AABAASURBVI6sl/K5i/l45Cm3OwhOxXEazeYyKzJ/N13Iyk7DzFXiNN+26pIZKd94xvhYjAACCCCAAAIIIIAAAghclQCDRQCBTQRS0iL6AjPSxOLZpEXk3X7u/uzRU/XWm2UmJN6umcC1fmNyIma5Y66A83Kgw1ZMFzwhgAACCCCAAAIIIIDAOQsQOwIIILCzwHpaRE+l2u12w+lUGx19wkvOI7o2TUEsvk631DKmI/H9F6meWOs4NaUWT8wwIjDcEUAAAQQQQAABBK5cgOEjgAACCBxGYD0topTjNBqNjPzF1lGYxEf9RsWmXO2P7Xk60qbJmcQPFpFl3BFAAAEEEEAAAQSuUIAhI4AAAgggcESBtLRIVve+78/ltt15LSbxsZiOHp9v35pjT4Yt5U17wQwmWV2yHAEEEEAAAQQQuFwBRoYAAggggAACpxYolxbxZ/rKub1ebyS3d3bOEX013Y1nRHW7g2BSVWVnVeUsmVN/A+gfAQQQQACBYwjQBwIIIIAAAgggUEmBEmmR+bjdm3qLet2t1+Nj8F8W3qh0YsS5kcrJ02Ts7CFmZlezdn+TvL68vPwpNwQQQACBUwvE/9Oo7PuNkEqN4qSFNhoOhRE4msBJ/1mU6vxoFPvqSH7dLTUwCiGAAAIIFAkUp0XMNWKU2x0MOve1WHP2UjHeYzQ/SGxdyttYDiRca6YbsR/MWpW47oxZW7+zF+y1pUo/12q1X+GGAAIInKHAf/z/+D9X/750LXpX+sf2KQsWDSKx/pSBlus7ES4fEKiMQLnv7ylLVYaqbCDy6+4pvegbAQQQuCCBwrRIkBW5Xb+urk1llD7Eo3HrqpXEh742jWtbNmvjbfnzp4XaMityQduHoSCAQEUECAMBBBBAAAEEEEAAAQQuUaAwLbK/QTfetOqL6cPMXnLXn49Hnqq33gT5Fr1W6ZNyzMwl/uxhulDufdPZX/+0hAACpQQohAACCCCAAAIIIIAAAghcjUBhWsTM+pE8ysPi+LNHT94lpwuRBdl3pzkYtmpPo15bbr3HF7c7HCzzHnpt130J1j4pWdsJUibZTbIGgV0EqIsAAggggAACCCCAAAIIIHDdAsVpkea9q9RCX0rXHuahlO/PZ+N+b7oQug0P6HCanYG5PO9kMoiuSSPN2LvTyFtry/C8lQCVEEAAAQQQQAABBBBAAAEEEEBgTaAwLaJUozNs1XVmZDTVh4cob9qTdzonUm8NK3dAx9oIWYAAAggggAACCCCAAAIIIIAAAhcnsJ8BlUiLKOU0B5PhsNty3Xpwc91WdziJnQKzn2hoBQEEEEAAAQQQQAABBC5KYD7ut9v9cXjk+UWNbd+D8WdjuZWnwjZvC4imfPXa5tafzfOK6nW+aPbHOddZlfY22jq60T0+aOqAAqXSIrp/x2k0O51BcOt0mg1HL+aBAAIIIIAAAggggAAC5y5gzpI3+4/mqa/TGOZSCHsamD7UfE9NHaQZf2Z3oPvJveL5WDjGhTvUewvJf/Y872VD+LK2/nzub9j03gamVCgsoMv7CnfQ3V5epL/e1KvJ3/L1HA7Dt43iaSv9l8XiJafzrbZOTnusqo5A6bRISshmjpHitFtKTRYhgAACCCCAAAIIIIBAVQTm495o+nIX7EJOht272svoofxBC7njsNMHds7jj6qL6bvjJUFUrluZlRvY6m08ene6tIgdjtvVSYroccCzD/xnSRe5t8HXznH4m77dAjynCuyUFnk3mnrTD+f0gyPVgIUIIIAAAggggAACCFyvgLnCZL31NjocXB8mPtjrCfMnw/XlL7nj3DMjYqHVXVcp7zF5wEhsPW8LBDbSLmiL1QgcUWA9LaJPqeqXubVHZgbWIwZLVwgggAACCCCAAAIIVFqgEsH9zZ//b3LuayGav6svnjMPJPD1CSbjuZl6ITj/QZ9jk2xHrw1WtpNpCFM9ebaELmxPWpEqfSluD0wxp6zES5qq7eVJLOazfPRner4SqWsmLUkE4s9n/ajpdrv38PCoz4vQZ4/Ifo6Uz0t63NxIXqTogBEdvOlaniT0GFtheIUFEkOJPhT0GBPTJaPRh7CmV7vv5o0k6HYkmg9u6m2tHUVf6k3Ql2y9cMtaWj0gE3LalyrjO2naSh2v0s0tfTLmEcn5dqWNRbdpQ5RvV6JJE0g+YFqDLDuBwHpaxLlRi1I3HW3d7XItGg3BAwEEEEAAAQQQuDIBhnsxAs5NXcbijfozm52QD+t3b9R7vLl/q09/GHbdhXyU/b2wmOz/9UbhSTjD7t3LtBfteodllq/6dA6vdjfUbU0mw/s7lZ2SWdaK3smu/cPzbSySWFpANz1VQdMSp1Sq3Q8GZl7E+QdvoVR+0qPxpiUWOQeMFI80LzwJR6nCAqZU9FTcY1RUjz4FVl8/YzLpSsZHBeewbLAHlxet7i9LOwpqgzfypXq0W1Y23cKb9vr9h8cbu6VbSj7HvnK6WV0+5TuZNV4j6dXu7Rdv2K2lfU0X017mt0v3ufIwbeZ+8/MAVxrj4+kEUtIizbfDcjf5QTbY4J/U6QZJzwgggAACCCCAwA4CVEXgsgWc5r0ryQDJGIx68mdv+TN92tScbncQnGXjrCQP/NnDdLE8CcdpNN9KciEztyDpCaXc22Yw2YMU73TCD6WgpatgphKncSs7+9GBLtHZQLZpE+ciikPKyijrrTd5c29qi+zcSamRZoYXDq6wQFhQXkv1KOX0fWdY3cjaIzPafO21dsosiPqyG1YtJKdlvxpO40423os+6CfWUPZ3MlYoeGskJS8UfHWU0+jcy5cn+noExVQUg5RIfLvCArFX06ZUiP5hpH3zZX3Qpx1V9HWNNcTbUwusp0WUckreTh07/SOAAAIIIIDAngVoDgEErlKg0RkMuy2TG5GcgDcd9Xrt2DEY2qR+Y3MN+r3sMOqd1GD/zp8/LZSqOfH1Tk3ayTsGxBvp83BiJ6CYdks91e+CaTSj0uHesjkbKB6Ik4hDRjnJnTHFDGgl5xN1Im9KjTQ7PGlB3wsL6ELBo1SPQVn7sgOsbWDlOTvaAu2VdoKPnj2LR7Jvcl/5iqm1vtzbvBSWyv5OBr3FXqxkooaSRJl8TZ8Sx0itxaDCb1esseCtbTP+hZM96dVv/iYNBu3ycnyBtLTI8aOgRwQQQAABBI4tQH8IIIAAAjEBfdDGYDKZROmRxbS3cs5CrLR9G99hTOzv2okdbKG150anqxMw+jyc6OCUtULbL4gH5fsvKrnzXKLd4ICR5N5yrF75kcYq7fS2ZI8Hhk0dwqbawVk88kWT+yGuQxMPaD3iRApDKXP6mEmGrRctvaTk1indHgVPIVAyLeL786zbypFMpxgEfSKAAAII5AmwDgEEEEAAgbICNj1iJqLI+Tv5emuJ/V3Z5ZV75un2+rANk36pSzsLfXDK6nEDsnyLuznQYzF9CGZVNac4rB+CUNxw0M67ud1vXqmwyUhXqm75sXSPh4JNjTtQ2lk7tfEzWlh665zRmK4v1BJpEX/Wb/d6o6zbyS9+fX0bjREjgECmACsQQAABBBBAYA8C5vSCwnbif3vP/yv9elMm/TLQR6e4snKReWyGrCx/d5oDSegspvoolHa7N1Vud7jNIQlOM3XaCRvIpiO1tXZ53qjHg8CmRr8v7dTGt10Y/04WtmHOA0qeWFNYZ63ARltnrTYLqiFQmBaxSVal6nU3/RY/y7AaY1Lq48ePX3ND4MIFGN5lClTlx2huHOXpc5upysryw5GSVQk6Ow4JkjsCFRTI/s5WZU0F0fJDkl9392jnZxz/nbmLaSdVCGZ+sLNhbpvYsNNQZgzG7LZmrEtdPB+PvHrLXmpkMpkMgrkubdniC/Tacvo5OBTi8Ul/CB+7jTRsZZPXHXrMhc2KYTPwXO2sLg61PPGdXO/ESnof5rFVZo7a9bk/YiXy39o2t/3m57fN2uMKFKdFnhcSUb31dtBJv9m5gaVMhe6vXr36hNvlCDASBK5IoEI/SbNDKb89stuo0Jryw5GSFYo7IxQJkjsCFRTI+MJWaHEF0fJDkl9398Y3H/d6vfgEqP581h95KnnNFn1uSjA3pf276XK1Y66/ES8gDUiDGRFKdmK8vBSwuZ5JcKaLOUYl3MvUUTx6GW1kLDZziWTNFSE7wbJjk3+B3mW79oCRxUKqxBfqa+yUHumyYtl3ZrKLeOFNbLNhdYum6eDIhjAPtht4rrbu8tCP+IbQV0Na+comu7eS3mgcfot1UkfV3fvyu7OGMN6qbTMeRu43P16V99USKEyL2HAzM8V2Nc97EqAZBBBAAAEEEEAAAQSOK9DoDLut2svjgz31pN3uPT7VWqtnn9Tdu+dHW0KfnNJKnJziNAfDrquezAV+bQN3t7Er08QH5Du3tZenoCkp+xQ706XRGbZcZc+BeXhU92+7+gybeO3893o31a0n5sA0lxs2tSQHUFe5e86mWPQk5aP30ZtNRhpVKv9GJ2Pq5iSgaLrb0j3mwUoExiaw7T0EuYHGLuCmxSxt6THtntg2KRejSauTuSz3O7ley0q+BF+93uhFn2KVOQHOen21y9ZJaY5FFRIoTIuY48dU8nCjPcRPEwgggAACCCCAAAIIIHAQgX/3y/+vnPt6l3Y6isEkvA0GnebqRXDVjZ7PMygh61eTHo6sjlpINCB7o5PYdXEdUzIqOpGysb6cZidYNRhIDI2O9Ljcc11pSkZiCsSmD1nWl4p65pKantHV5hgkwnggUnt5Ny1Plj3pNaZtaSa5VJn4ZbG5S/QSpi4tD9NILBilTBPLJYUFdA07/nin5XrMhzXhhbbxzZENXhxtnrZ0mLib1oxZ/Cm0MWvDD7qekYshrBXQhfK+k6sN6PIr2y5xipWSrIfQx2NY3Xy7bB3T/XqDdvE1PFd8jIVpEf316Oqca3i4UcUHRHgIIIAAAggggMC1C3iD16+/Fd5evx5EJyI8e4MvXr/+4qvnaxdi/Jco4M9n43FwEZpwfMEEG8G5I+FSXncXQDvLkOXnKFCYFvFn4/7jiwzNC46Ja6/cbO5VCnBHAAEEEEAAAQQQqIjAp3//D35sb+/f9815CM9fDb74zvd+VpH4CAOBvQs46tnzpg/LaUuUkn13PT3JDrNq7j3KS2nQUc9oX8rGZByqOC3y7C3kBhUCCCCAAAIIIIDAGQs8/+S9+u4P3//260/PeBCEfiIBp+a6d86JOi/fbaNjJjgJ5o7Qf8tNnSWlfINhSV5TBE6sfSbfyRQ4FlVRoDAtYk7Kip//tfo+dsZXFQdITAgggAACCCCAAAJK3Xz+Zd+9QQKBXIH0lU6j00mZbCS98EmXSqSDwSC2v5KY+uOkoV1g56fUlr7P5Dt5gRv+EodUmBa5xEEzJgQQQAABBBBA4MIFfvr+d/X0Iq9ffzHwmEkkZWOzCAEEEEAAAStAWsQ68IwAAggggAACCFyMwC/9xve//9tfvv/xj3/8wy++8aPv/S5aWW6SAAAQAElEQVRTrF7MpmUgCCCAAAJ7FyiZFvH9edbN9/ceFA0igAACCCCAAAKbC1AjFLi5cYPzZW4+//XP1E9//hfhGl4RQAABBBBAIClQIi3iz/rtXm+UdXtHWiRJyicEEEAAAQQOLkAHCCCAAAIIIIAAAnsRKEyL+LOH6UK6qtfd9NtN9SellvC5I4AAAgicqQBhI4DAxgLPXw2+shOKPHtf/eBH6rNfdzdugwoIIIAAAghciUBxWuTZJEVabwed9FuTtMiVfFcYJgIIHFqA9hFAAIH9CNz82i///Ae/+S25/eb33n/j+z/skxXZDyytIIAAAghcokBhWsQOuuaQ/LASPCOAwD4EaAMBBBBA4JACN5/3v/yxub3/sh/MMhL0d/P5l++//Pwm+MQLAggggAACVy9QmBZpvGnVlfI+zK+eCgAEthKgEgIIIIAAAggggAACCCCAQGUFCtMiymkOum7dG43nzK1a2c1YjcCIAgEEEEAAAQQQQAABBBBAAIHzEihMi/izcf/xRQbljXrttNv4Co8jEQ7uCCCAAAIIIIAAAggggAACCCBw7gIFaRGl/GdvIbfzGufHjx+/5oYAAgicocBZ/LAt73phw5GBV39EEiR3BCoowL+dvW8U+XW3+qpEiAACZyZwreEWpkUanUn+rdOont2rV68+4YYAAgicoUD1fqCmRFTeNaVy9RaVH46UrF74qxFJkNwRqKDA6je1ep8riJYfkvy6Wz1FIkLgfASIFIGYQGFaJFaWtwgggAACCCCAAAIIIIAAAmckQKgIIFAksElaxPf9udx8pl4tUmU9AggggAACCCCAAAIIHFeA3hBAAIGtBMqlRfS8q+12r9cbye2dTYv483Gf6Va3QqcSAggggAACCCCAAALbC1ATAQQQQGB/AiXSIvNxuzf1FvW6W6/HO/ZfFt6IxEichPcIIIAAAggggMBeBP7Z3/lhxe97GWZxI5RAAAEEEEDgwALFaZH5B09icLuDQee+Ju/Cu9O4kyyJ9zizB4+Ei3lFAAEEEEAAAQQQ2FyAGggggAACCCBwCoHCtEiQFbldv96M4+gsyeKZtMgpNhx9IoAAAgggcLYCBI4AAggggAACCFRGoDAtUplICQQBBBBAAIGzEyBgBBBAAAEEEEAAgWoLFKZFnJu6jOBl/fIz/uxRn11Tv3FkPXcEEEAAgSsXYPgIIIAAAggggAACCJyhQHFapHnvKrWY9vqzeXC6jO/PZ+N+b7qQ8br3TdIi4sAdAQSuSIChIoAAAggggAACCCCAwKUIFKZFlGp0hq26zoyMpvrwEOVNe/JO50TqrWFnfc6RS6FhHAggoCBAAAEEEEAAAQQQQAABBC5aoERaRCmnOZgMh92W69aDm+u2usPJgCNFLvrLcV2DY7QIIIAAAggggAACCCCAAALXJ1AqLaJZHKfR7HQGwa3TaTYcvZjH+QkQMQIIrAo8fzUYfPUcLfUGr19/K7y9fj0wB8pFa3mDAAIIIIAAAggggAAClyNQOi1yjkMmZgQQQKCMwPNP3v/oZ8mCn/79P/ixvb1/33eT6/iEAAIIIIAAAggggAACFRPYPpzstIhf8rZ939REAAEEqiAgWZGffvbdz2+qEAsxIIAAAggggAACCCCQL8DaPQtkpUXm417J23i+55BoDgEEEDimgPdPvvzpZ7/OESHHNKcvBBBAAAEEEECgjABlEDiGQFZaxLlx824tudXrxwiQPhBAAIGDCnj/6keffvEbkhXxBq+/iCYY+en739XTi7x+/cXAW046ctBAaBwBBBBAAAEErliAoSOAwMkEMtMizU7W7c2bW/U0nU4XC4m67t5UcOrVjx8/fs0NAQQQKBb4k9//73/0n/zq3/lFKfnx36v/8O/+rbz5+j/+L/6r/6o7+sPZbDb+P9R+9L1/9Pt/opce5yE/V6t/L09R/bFIhOWHIyWlfMXvEiT3yxCo+DdNwtvIWcpX/L7RcKpQWH7drThpdnisQQABBKolkJUWSY3S9+fjfrvXG3mSEam7re5wMug0K5gWefXq1SfcEEAAgUKBv/zXf/znn37729/UBV/9DfULf/Nv6Xff/Gaw6JNv/r1vf6b+/P/zP+mlx3mk/vCt2sLyFFWLPDWe8sORkqktVGqhBMn9MgQq9b1KDWYj59QWKrVwo+GULnzAgvLrbqUACQYBBBA4X4GSaZH0hEijghmR890URI4AAkcXeP7J+z/76z/7x79pLsb7D/+FvP0Ol+M9+lagQwQQuAgBBoEAAggggMC5ChSmRUiInOumJW4EECgUuPn8S3sVXnn+g7//n/5H/+nf/+H7vvv81eArO6HIs/fVD36kmI+1EJICCFyVAINFAAEEEEAAgYsSyEmLkBC5qC3NYBBAoKzAza/98s9/YI4g+c3vvf/G93/Yd8vWpBwCFybAcBBAAAEEEEAAgcsXyEqLzMdrc4hwyszlfx0YIQJXLHDz+Zfvv/z8RgvcfN4PjiJ5/2XfNYv0Yh6XLMDYEEAAAQQQQAABBK5UICstEuN4eXp8aGffxvNYWd4igAACCFRbgOgQQAABBBBAAAEEEEBgKVCcFlno27IC7xBAAIEzESBMBBBAAAEEEEAAAQQQQKBAICst0uhMSt46jYIuWI0AAocWoH0EEEAAAQQQQAABBBBAAIFtBLLSItu0RR0EDi9ADwgggAACCCCAAAKXIeDPZnP/bIeioz/b4AkcAQTiAqRF4hqVek8wCCCAAAIIIIAAAghcrIA/e5hOP5xtWmT+bjodMcvixX49Gdh1CVQhLXJd4owWAQQQQAABBBBAAIFrF9BJkUW99easzsf3Z+N+eCWKxxvXVd7JEyPxkPqzufJnOsKxOQon/r7U90031u/PzjNVNdfbpm9HXmq0FNpIwPraL0f8/UaNBIUr+EJapIIbhZAQQAABBBBAAAEEEDiigN2BDvf45bXfH292gstaC9JIO3MPO0iKvG06y0H681jSQbpf2Tn3za6YbrUtwZndflvX12t0LsCuy9kvNj2UKmlbTj7LCHtTr9YdmhkYh28bnU63XGJkPpbQUiykRVmxwxEn0kAypJ2TTC+LRXLUx/0kA9pNpGz0/nzur3zBDjLS0zWa+Feh/8nIv+dDj/icVUmLnO67Ss8IIIAAAggggAACCFRHwO2aPX55Gt7XXqajXnvTXfZlC9LIZDKIpz1i45y/my5U/a4RS4rMx73RVN0HOYfu3cu0F0skyO5ybxSmJIZ3yhv1gtCkXm/0Uosq1mRVrGKsUzV/N5q+3JUpGa8VvfefZZ/bvQ2CdhwJvnHrKuU92r+gRwXX3phii6dYKscU8edPtkXzaZunlJCc5kDoOybK+Pttmt+kzunLNjrLkRdEI1+a0ejdoZMEBUEccLX8c2nH/lVMJubf8+N8py6Nb/AvOv4+avS8VUmLRBuSNwggcJYCf/XH/23172cpS9AIIIAAAtcr4Mh+T7fULv82RvMPnlLufSxn4s8ePaVPqZFcg7ToNJr3rlpM3wU7ciaN4nbtzr5ymm9bdcmMmMRIozPsDgfBGuU03siqZUVpa3mXosNB0yQMVH7JZZ31d4klGQmPRBn5kFps96yItLzz3TcH24yLMjs793N1DZwO1hyKpdxu9K9Cf9slZxSkNK5uS5QbMGmRck6UQgABBBBAAAEEEEDgTAT8//vPc+4lB+Hc1JWKH+OQOCx//SyXks0qZbIi9RubAbG1zGEP9m3K81oFp3Ensb3Y0yCcINFhKzpOTd4Eq+Rd4u7E+7Qlw/X6DJ5+dIJNOzE8/cf3dnskuRxJxrT1zWRkdNXUhIdekXysWcpqM2b3Nn7eixbWzetHIgI7ZYj0Gp5J1DexroW0drqODV0qSof27s9npq7uQx69h4fHF1ljLeWN3KWInqdD1iYdZNPNxrZnva69utZ0Jn2FQcpbaU3u2eOSlZvds5syvccOFNIlow3aF059tI4plLopC+lMVRmSnoDFDl/GH+Tt9BhErQhWF9OPvC+bCre1tJfcCnpAtmMZTOahLjYpolOMuqecx7K51Q0ZjjSxHfNiNhVSVXP6r9gq0iIV2yCEgwACCCCAAAIIIHBcAXrLEagFqQTZ89GnsSxPQXmZbn6OjenH9/VueNiuWaTWsgvxTEhKBZPSiKdsbDPybAvLm8K7KRllZxrO7d3924m9DVs1L3YSjz0ZpetKk8FZQp0omWETHs+Ze6lSR+42j7OIFzMjjGdFjPDLXdecRzQ0pxGtnMTkjdqPwXlGg4E+YyQ9JOkv865PdJiqO9PHZGjq1+4Hg054EI1UXExHj+rWUAy7CQel8pSkqr7HgrRKxePS1Uo9NmhKD9SrBQOdDO/vlMHP25RlQpDRPTyHOO7CG4V5GN1fAeyy/VKMvUfbkWylhf429h8eb+xWaSn5LAmaZYOxdybbljxBLbY2fFssKSMNv2xmO+bFvKtqGNUpX0mLnFKfvhFAAAEEEEAAgWMK0BcC5QXs/tWNo2vYP0FHp7Eop9G5lyxB8bQaunKZR6PTdesLybToP+vPxv2RV3e7wVH/8UCK2rJnphTuFSr5U/zDdFFvLSd9bTSWqQGnqScNSU27FAWQsd7mRbwP0dEFq1kRI6zjsce+OA17ptDKvCXufXi6UEY/+YuDc5XCQZtTjhZrG1HDh1GsnpNURikRZLlx5YcdrN2kqYA3PE9LODud8EPQ3HYvsomCTeDYXJ7JtpSDXfZYgjHqyPajFpK+siOw36WMA6JMsk8lk47LfoN35SQT21GpEjEHzZ/ly2WmRT5+/Pg1NwQQuA6Bs/jRW35TMJzjC5TfOlLy+OFt2qMEyd0KnPvzppv++OU3Ej5+eJv2uNFwqlBYft3ddIyblNcH2I88VQ8mAAmSDTZFErRjdwpX5hGVPzHbw/z1c/iH9KBC4iU6SiNa6tzqE2PqSv4yPvUWql5L9BYVy39jJiFJTluyWkH+Ti7B6fld3W6YH1gto5Q5CGR98fZL7L5slBcJdtujg06scGJv1h4RY/a6w27jB5eEyzZ5NQmmeCcpfajEplkJe6WzVKVEkOXGtdJs+sfNm/JG/fE8fnZQesObLF1PuJn0RCnYzH7SGNc6SrBmNqVMJPHV5uQg+cbre/AvspxkfodpMce7Pbv3l5kWefXq1SfcEEDgOgTO4sdu+U3BcI4vUH7rSMnjh1emx3gZCZL7ZQjEN2s132/kXM0hxKPaaDhVKCy/7sbj38/7ZVKj9/hSa5mpTGMtx/enZbHZMUqcF6JUcI6JPRUlONhDiq7fV+pJrkInKlpDc27IUB854k03PklnPpZUjsRgDvpf79MusQf8TybDu5dRrx3sKMoq30yeoHce9aM3Xciyfd4TCYbVrEjQ0XID6Bj0YIIV9iWRsLCLtng2+/FBPXNsQYlmozrFSmmtFYwrCKbUS8mmzNFHSnJso15PLPvjmZ5ZpFQPWxeKkKSFAthiRmljq7v5VxmvMbIKiwAAEABJREFU2eiYf43mfKn48nCaHNHR9+Iv2+FiToR1qg+XmRY5lSb9IoAAAggcVIDGEUAAAQQOKBBLaiSnmzhgn6Zpc5BHPTqjxWl0BsNWXSl7fofZ01vJo5hqiSfJrOhdO32iT2J51gd7PZvwojVmaghPBTN7SNJEd59VdbvlsbyI2WlO+Wt8bAOYfVl5yk3xbBpIcJ2eh+C6M+ZcCrV2XEJ2q9sq7XFcpZuS79Bk2G25dfkeSXpkOuotU2DZI9xyzWaw2zKWDy6eocmqVVrSNHD4mE03p3siLXI6e3pGAAEEsgVYgwACCCCAQLUFzOH6accGFIRtTtxQ8R03kyVYmQ/BJhFMMmS9gjI14vvzstc2XSjZ09sgjbBs10wNoXRexs6pUTCC+OoNFOyQZODmJIaUrEgCJd7J3t47zUHXVXoOF32EQG8qYsO8g3rCjs2BQtsryZjDlnZ93agpPaWIPv5oKINWiasq7RrGav0NYLdnXO007bP9kpl/N2mrY8s2kTxszLGgTveWtMjp7OkZAQSMAE8IIIAAAgggUG0Bu68VTYxhgjXngcQzE2Zpmae1WUmW+YlY9Vi+wVaIzbJh8grLvu2BIvXWMCUnYi4ymn6cwGpuxez7BxGY3oP3eS8bKRjGxdO7d0+SwUlcmVeZVQfYcV8dhz7PSKAmwW0QTB+aOUQjreIpnM2U9jiuHZoKZi3NHGXqilW61ELRwk1hN2OMuil+Y5nscVYZpW2RzWcUPljMGXEedTFpkaNy09mVCzB8BBBAAAEEEEDgHAXsGSfeaBzM0ODrvcBoRtZNR2TTHLHZWqNzEILmVdB+eFqNWR/1bs/9CGaDVZIT6elryqQf9SBpi4VS+lQZKddu6yk4bbTSw4M+vuReX93D7idGu5KyTp+Po4r/5i7Nq+gsFNOD7sL2kPJs+ll43lpWRCkrvJg+hJNg+PNZX8JNaSVnUUJWt/DoJUqbTFDBsBbTXrCZpQFtVG+9MVPDmuiDE5uk1XJK+xmXdLcZkWTDYtOJBAc73IXHApnTsoKjJfxgTtYiOhNC5lMZ2KDyVoxB3TIv4YErD8FW1HX8+Qd9VWz9Vj823iilYk5T1b2dx4O0yHlsp7OLkoARQAABBBBAAAEELkhAdraGXfflUU9g2W73Ri/u6oyserDJCTElDRHMYqHXxR4mzRH/a7VpvVV7Gtnm271H075OWZhqZr2r50htS+dP+tyP4MgQMy2JTnwENWW9vo+DK+HKzm5dEheyYy+7gt1WLRyA7qHWGk6CVnT7LVdNbSMPH26Gw2HLrUeJEhPE+pPJioT5meAiIItgd3u9tCyxu5cSUMpldnQMXVeFBr3Hp9rdrSOVNrk3OhJ3MI6HR3X/tuvGqwuCHtZIEwWPtdlI663uzYcHvVbPgqs3c7gZdISbK+laEsUG41r9FoUbU3JHA/kSliDyndvay1PwZQ2/McuzhQxDoNR7CHJxjXy6OOP6e9NiPRH4GmxYS4NszhjWLvPa6EyG3eV3XQAeX5Tbat2HeaHykkF3ZWI2BquqQf3qv5AW2XUbUR8BBBBAAAEEEEAAgUoJOP+XX865p4Qqez2TSZgjSFlvFumZUAdSzNxXT7+wLZhVsaflnqhpIXrSe1B1fWiEv1zUaHai1ieD1faV7j1oOb5S9gCDpYmXIN2hlJ55c2LDCGeasAWlkXB338TgLLsfdJqOYz7bima9tCQVo3ZlmTliJjbFq6RgZOny3B75sHYPmOLtxsroMUYGOsD4buwkGEasvBl8PCRZZ+KWSKX4oNmQFuV9rMhytSyf6L1nbzrqBYkHE53UilNEIUjb+oiNaCOtKwXVHVMy/iRR6Ck+TI9600pc8dXL96YFWyz2HAvffA2KiRzTY1RO95k9juhrsLQZCII0ITEs+zaxJTac4Q+XLCtLrVXY5Qjtu1jhEoymn2UgOqchWzcK2za58izRL8mltP42JdkTJfTqSGh9pLrx3Jh1geS3Iz88W75KzxukRaoUNrEggAACCCCAAAIIIIDA2QqkJEbOayyrSRFl54GNjh2p3mj8+Ww8Xjl8J5h1I+8Il+oNpGoRXSxs1aAPGQ9pkUPq0jYCCCCAAAIIIIAAAgikCUhipNtdHtafVqTKyxpvut1u7E/4Ss9OGk7DUcnAHfXsecvJS3SMskOvZx/JP8JFF7zwx27DA3Y3v0rUJi1Sic1AEAgggAACCCCAAAIIXJmA02hEB+6f39B19PGo9akH4RkV8eXVed/oDLuuWk65oeeceKq1uumz1VYn7spH0uiYKU+iuUyArfwmWwvwBGkRXx+9Fcxsk4zHn4/7enYfeeh5l5enGiaL8QkBBBBAAAEEEEAAAQQQyBZgTZqAmU9iOeWGnnOik5xxIq0WywoFgC0kqniB46dF5u+mnves1qbi8Wf93sirdYd6kprhnfKiuX8qTkh4CCCAAAIIIIAAAgicSoB+EUAAAQR2Ezh2WsSf6dPX3NvGatiSLVkoPZOzyZc4zbetumRGgkmRVwvzGQEEEEAAAQQQQODaBBgvAggggAACBxA4clpEz0Sk0qYimn/wlKrfmJyIGabTuKsrxaTIBoMnBBBAAAEEELgqAQaLAAIIIIAAAscSOG5axBwSkjbTse+/yIhrzv/M3tuGOJaleX7H/WGYhC5cLDYYoWj1Vi0NbZvGYC1JoKaGCjrNYtoxW8QXpdxbVWadA97oBFsIgwayZ7bKWB8sZONAxji97sryoNQaYtMdzAfjGiJN03KQWCzGYBo3kzWlCiHvl10GaiCHxez4OS/33nOlK+lKoZcr6SeupKvz8pzn+Z2byjh/nXNuJIuoXC6v1OAmcRMSKcsBAQhAAAIQgAAEIAABCEAAAhCAwK4SyIrfG5VFzJSQ0tmpFj/67UqlfhXsqjq6HcQni2SFD35AAAIQgAAEIAABCEAAAhCAAATuQoC6mSawQVlk6rYimQaEcxCAAAQgAAEIQAACEIAABCCQjgClILB7BDYni0zdVmT3oOExBCAAAQhAAAIQgAAEIHDgBAgfAhDYEwIbk0XGthWxm4mEEHNHBaUGt8GamjB9yZPhcPgbHhCAwGEQWPJrYrPV0nfFZv1asrWDDUcCXxLZBquJkxz7QWCDV82STS3Eeck2NlhtoXCyUFj+3N0gHpqCAAQgsM8ENiWLWBlk0K1V7KPWHYgOoj+aDUbM/qrx+86YGknbs6bojnw+/z0eEIDAYRBI8ZWw/SLpu2L7vqbw4GDDkcBT4NlyEXGSYz8IbPlKStH8QpxT2NtykSCcnXmXP3e3jIzmIQABCOwLgU3JIrnTRsd/NMsFpQrlZqfTMDuwFu+XRCbxpovYNTfHRb09677AJg4IQAACEIAABCCQFQL4AQEIQAACEICAJrApWUS3NfNZ/ECEkl6rbW/IO7q66A6Uu2nNzHpkQgACEIAABCAAgZkEyIQABCAAAQhAAAJTCWRGFlG500azWhq2zDKb2o0qVZvnxal+kwEBCEAAAhCAwAQBEiAAAQhAAAIQgAAEFiOwLVlERJBg/UzkcK54Hiy1aTTOWT8TkeEMAhCAAATGCPARAhCAAAQgAAEIQAACKyCwLVlkBa5jAgIQgMBhECBKCEAAAhCAAAQgAAEIQGBdBJBF1kUWuxCAwOIEqAEBCEAAAhCAAAQgAAEIQGCjBJBFNoqbxiAQEOAdAhCAAAQgAAEIQAACEIAABLZPAFlk+32w7x4QHwQgAAEIQAACEIAABCAAAQhAIKMEkEVW2DGYggAEIAABCEAAAhCAAAQgAAEIQGCXCCwni+xShPgKAQhAAAIQgAAEIAABCEAAAhCAwHIE9r4WssjedzEBQgACEIAABCAAAQhAAAIQgMB8ApQ4TALIIofZ70QNAQhAAAIQgAAEIAABCBwuASKHAARCAsgiIQpOIAABCEAAAhCAAAQgAIF9I0A8EIAABGYTQBaZzYdcCEAAAhCAAAQgAAEI7AYBvIQABCAAgSUIIIssAY0qEIAABCAAAQhAAALbJEDbEIAABCAAgVURQBZZFUnsQAACEIAABCAAgdUTwCIEIAABCEAAAmslsJ+yyJs3b77hAQEIHAaBtX5Frsp4+q5YVYtrtXOw4UjgawW7EuPi5O4eeO4TWMn1sFYjvrdzz9fqyUqMzw0hawXkz92VBI4RCEAAAhDYT1nk3r17b/GAAAQOg8BOfI+n7wrC2TyB9L0jJVfl3vrsiJMc+0FgfRfJqiwvxHlVja7PzkLhZKGw/Lm7PhpYhgAEIHBQBPZTFjmoLiRYCEAAAlkmgG8QgAAEIAABCEAAAhDIMgFkkSz3Dr5BAAK7RABfIQABCEAAAhCAAAQgAIGdI4AssnNdhsMQ2D4BPIAABCAAAQhAAAIQgAAEILAfBJBF9qMfiWJdBLALAQhAAAIQgAAEIAABCEAAAntMAFlkjzt3sdAoDQEIQAACEIAABCAAAQhAAAIQODQChyiLHFofEy8EIAABCEAAAhCAAAQgAAEIQOAQCaSIGVkkBSSKQAACEYHbXuPR++Zx8qjRm0g/kdTnt1EyZxCAAAQgAAEIQAACEIDABgjQxLIEkEWWJUc9CBwmgdtf/fK7H3/+Uh6ff/rOF08eOQnk9vknT748kfTrZx+rpx/5eslhciJqCEAAAhCAAAQgAIF1EcAuBFZKAFlkpTgxBoG9J3D0sP6wdKTDPCq990C/62fvj56+fvDxQ51+VPrJo3e/+MzJJTqTJwQgAAEIQAACEIDAcgSoBQEIrJ8Assj6GdMCBPaTwO3zz7549+SHWgq5/fpL9e53v+PiPPrOO+r1V1+7T7xBAAIQgAAEIACBFAQoAgEIQGBLBJBFtgSeZiGwywR6jZP33//wqXr0MzNBZJdDwXcIQAACEIDAxgnQ4HwCo6ur/mh+seyW0AFk1zs8gwAEYgSQRWI4+AABCKQhUKpfv3z5+acn1x8Fe4ukqUUZCEAAAhA4OAIEDIGlCIyuLrrdV7ssi/RfdLutdn+p6KkEAQhsmgCyyKaJ0x4E9oXAUemHJ+++vv4Vt53Zlx4lDghA4E4EqAwBCKyKgBZFBoXyB8VVGdyCneJ5taR6WxdGRlftesU96ld9NbrSH9tmIo5/noqQNlavX+2mWtXXIOo28lTRUmghApavvTj884WMbLMwssg26dM2BPaEwFFsN5H4TiN7EiJhQAACEQHOIACB/SNgh8hu/Kzf6vX2YqtYJiwYK3aYtBAvJ4o8Ps1F1UZ9f3jfHrc6MuMw3WBF/DZj/rDuSGdqLcBmTxsXmxbmFwvNjp+M+v1RXC9ILYz02+Jagtpgid5hxokYqHV7+Wqzox/Nx8U760zDwWA88E1+loAE1R2IpPV+sjc3GeYm2or9q9D/auRfe/z6XbEXmUeKLLLiHsccBPabwO3zR4+e98wEkVt9+xm356p39xmT7O5Ks98siO4QCBAjBCAAgYMiUKrq8bN+Ns/yw26rVll0CBpZ0M65VC4AABAASURBVFY6DV/bSIey/6I7UIXjoieK9Nu1VledudF99XjYrXkqgoyVa61g8N88Vr1WLfJaqtZaw3xYNy+5Xt3Qpf6LVnd4PLdYWH7sRJpptV6MDyuL90tK9S7HRZyxusoUG9zE1RylRv0bGcWX7i+vZYxurQGLMpeT99xpQzrm3ND1z8d92r/PxfMo8jnRJffmnEo7lC3/Yirev4pOx/xrv7zbii/D1/17988tlx1Aiixiu4pXCEAgFYGjH3588tVnH74vjw8/U4+ePXV7rh49/Nmn71xL+slHOrkufwakskehzBDAEQhAAAIQgEBEICcjm6r8bz5/UB/VWclZ/1VPqdKZJ6eMri57Si+pkVG9NJErnp6V1KD7wo3ijIxSqtqRvsqdPi4XRBkJhJHiebPabLhMlSt+ILlRXTHnDinXbJwatUDNKOZKp32bIniMV08sdndVZLyZZT6PzGSbiek5y5iijk9ge2DNbCxVqob/KvQFL5qRkzR8Jw/qfD9lkTdv3nzDAwIQWAeBt3/w45+2rsyj9dMfvx018fYPTPovfhFPjgqs62zhr+xtVEgf/Da8W7jNgw1HAl8Y1sYriJMc+0Fg49fOwg0uxHlh6xuvsFA4WSgsf+6uG1LuqKCUP4shNvG+vsxYWa8XSZqsEYZiVJHCkVVAbKqZ82BPE14nKuSKx+L2MFzRknNah62by+XlJMqVD+7I+W3aYi5Hv+lFPPVwjU0lCl7/8l6ptETLETGmoh+BIqOrJQoeOiP+nCAt2Sbs+FwRzV+3oJ+RB1LWbhkiDQeLierG1wmvNP6Kz996LxW1EfMc9a9MXd2GPGsXF5dDyQhx6nMNQ/LkiHuhdIZXeyzXNCZtBU7KqViTY3pckrnYMd2Uad2LXZcMO7QururZOqbQZG/O5WbqSTx69xXBoo+6fPR9TwE2KJ4Ko9jTu6XYpvSEJB2Q/lTxrs7AYvRuRRGtMkZpiWeRuXGDQbCxfpzqsyk9iTSxza0m7qcscu/evbd4QAACh0Fgq1+haRtP3xVpLW613MGGI4FvFXyqxsVJjv0gkKq/t1poIc5b9TRV4wuFk4XC8ufujMB6f+vLGceMipNZeacXyPBGr1WJ1pkMu4uvsZk0H08ZjfQYPGjS5k1IC74SklDBSBq+mmPN2Fdb3p7PeDXFfHWmmLt/fPa4Yx/Ncr4XrOOxK1GqJTHmFhCd+6terOBxO768Rkr7h5VyBn4xE6Svihj+w+OqWUrUNCuJxpY49VqVS7fUqNHQK0ameuW3HTvXax266ti00Wma+vmzRuM8mEcjhQfd1qW6b1A0qxEHyVFqKiWTa148Jy2o+XGZemleFjClA+3lXaCd5tmxMvDn9OZsJyS0i9uATGnQa3kijG5vDtjIeCqMtUvblvTSQF+N9YvLI9srZSWfx0SZ0LhR2+Jr1MK86GQ+SQk2uNhMP071+U5II4/Wf7afssj6udFCxgjgDgQgAAEIQAACEIDASgnYEdRRThu1PzKHa1VUrnh+JlLARtbY6L1LCwMRYfRv+lfteqtXKFXdlH/fR+3nnKddmTJnVCi/w190B4VybNPXYjGSBnKnetOQacrLHBcSs60u0nvlFgYpNa6KGP7aJTv3JVe0i4XG9i0pnQXLhRJbmZfolisFcZslR4OJLtbsAy/G1ySloRRzMl1c8xw3+YuYcniDpVqC8/w8+GCMLfUi/eP456yWZ6QWMZUOrBR0RwqMYVu2KTUQ+cpGYK+lpAlRYt3ofSquO0py/EhHMtaPSqXwOd5K1j4hi2StR+b5Qz4EIAABCEAAAhCAAATWS0BPoW/1VMHt8uHkBCuRuJbtyG9sp1D5EdlO5Nev4a/l8uOz/lwxc+m1wGE+TftB25+lYdvK3dcLYwpKfhbv9gaqkD/K2YwFX80+JPGdS2IWrJ96f9dSNRAHYgWCD2YSSPBhFe92LBvqIm7YHs47sfxjo1k7KSYYeBsf/MklJmHBF6Mx+Y0ktKFivTPm9lh7iZRiTqaLa8xs8sfFTfVa9fb47YOSbadLnVTbAm0iFdipjSRhnGgrhnWqKWU88bPN+iDzz7ESLK9KR3J2g0k++81m8DzDskgGaeESBCAAAQhAAAIQgAAE9pVAJGrULof5stms1IvVHzFLshn6xFZ+KOUWktjFJm5Gh1J2Ir0k6mUZhbJdo9Exk+/FzvgxZlK0Ci1UlJtmYUizWiqIOrLM+p1+W4Qe8XBau5GfzeNhqxaMEq17I7N5ghs/VmrdgU1e2WtMYBhXRVwrUfdoP3QwLsO+xQQLm7TEazCU11XN3IIUZsM68yklWZsTl/Yk7TOlKTMBSYnM1qrVhKXbWSRtI8uVCyFJ9Tlg52MUG0sd5t+sX7N4Lv8sOx39D9NPVsFOOUJHH/MvtpX4HHdhs5+QRTbLm9YgAAEIQAACEIAABCCQTQKeqBHfUGKL7poZHoVwRUuueN5olgsybDMLSMwwb0xHSXRWxBU9tNPLgBLzY4n2fjbeHWvM1hA95Xb26HSMB7Eqd/7g6SJm0Jzwa7zXPWYsKy/TJZ4lHHL36bnQG3hKdbOWYuxeyZI8/ViW0grjSm1KLqNOs1ouFeRSEnmk2/Lv+Tw9xOVyJsGKrDYx4SOwvSzGoP78d1+hmVY6NUljYP0+m2bW+YIssk662IYABCAAAQhAAAIQgMB+EjAT8pN+/V8+XLNqQ/mjNiMRjG2GYBUEI4ZMVlCmxtiYU0ZtMhCVkV5aGSFm12wNobQ0Y/fUWCC+BRjZqCR2s4ghQRWJcVnAh/RFc6eNqr75sZ5BUanUuqpUbYZTfmaYMdOIkinNqBVmSczh+R1PFjKltxTRU5CaErSK3XPpjl5MVF8A7PIYJ1pNSLAXmfmnk5DrJy1Ccr0++16t8RxZZI1wMQ0BCEAAAhCAAAQgAIHdJ2BHU+HWFyYgs9JjTH4wGTNe9JT9mePsiQ1LYvpEYNkTG2wFb4sNIyrE3LITRQrl5rgmYu4wGm6AEhg37wnaihn7m0w1uUWDUi4n/rYQIwN5cPPixc1AjakiJmsNA3cD0nNZrzMSUB33aLgdRL0S8VMDO+bsYpRWGNcdTLldS+Ohzfw0zm1mYZ25KNjFMOoWUj4tpol9dP3atsjiOwqvzWffufWdI4usjy2WIQABCEAAAhCAAAQgsA8E7LKSXqvdH5lwRnqcF+7IapJW82JlDm8j13ABQn9kW3BNB8tqTH7omF344TaK1eVFE6np28okzHoQzWKglF4qI4UqFb3/pq4hoke/faEnl5zZW3soO04Mh5LWAakZiTFmLY/7fX00co66+8kEEo1pRLdiG0l4Ne0Mer0JVUTvevK4XBBfL64chlH/qi4eJ1iZkRSDqy1c9mKljRg0ZyrBoFtrWx/EgMZUKH9gtoY13qtZlGJt2Q/2uhp07xaXsbWIKRHE2gFJ6e8rzSHoJ4F9VFDB1BzTm/O4mfZnvaQB6+ovhdHVTfMWTFy5cL2o64z6r4b63T0XIWmqzPd5yj8QUzsjL8giGekI3IDA5gj87n/zm+wfm8NBSxCAAAQgAIFkAqT6BGQ41ayWhpdugUVrqBdYjM+/GNuoUbQGt0+Fb2n2uZE5/J+qTcPl/E3LtlypXZqmnWQhg9jThnbMZtdu9MKPyC2zM4koGF1XWW8fKU9zExwZ7MrwV4/qZRxYLeeD2HQL+XLT2xJWu1AuKWfk4tVRs9kslwqhBKDEQJhfu7CqgVNFQonGzjAYOPEkEYIdXqr43V5cSe1DtaQCDLXLm/zx/UVvyFM8F79dHBeX6uxxteTMmzcTRiG2benEbqSFcvXo1YUwrOiNcPVFEPSE9jCkUEmgZNoYf9G1xIsF4or5J46YztRmU5sa5e7nhzfuUq5U7EUTzWIyGBwl25vF2dx04zOfxuIcsIEBHcXiGIPaad6L551mNbrcBcDlUJXK5bNwjZj2obrAxabLz/TZAIghTePoRssgi2wUN41BAAIQgAAEIJABAre9xqP3zeNR4/mtc6jXODkxafrl5KQR/xl1dq4zsbNvOH7wBGRc0+l4QkAiEL3daUOKmWN8gYW1YLK8l2ismWgxKVGPoAp6/kA46UKZTSBCq43xpiX/PPBrLFNGgGE978TqJnrbzY710LQQ2OiIkWCsH3iYO42aOD/N5cxnW9cUMZ9tCy7VzKfxtngVFUZKRnMS5MPE4SA6C+PZcf6N81N/GNtxkXiVTPA21DA18rPRkPrjRaJsE4uMnnvdVs0JD8Y7qeWjCF0wLXjVxb0xSq76pJQzPS5jNHoxFoxj/osf4XRTpq4DmzPFwu7W/T09DnslRJElcfONW3cNWNecTonqG9fjYHUB/+kVToHRNOVBmHTGt23PDQDjiXlp6CteLgebaV5jJXR2SCjZ/kyfxaKfb5FKYpYOZJEs9Qa+QAACEIAABCCwXgLa+u3zT558efL5S3l8/rF6+lEkgLz7eyZVMq6v67FfUXW92bm6BE8IZIRA6X95Z8aRESenupEgjEwtm9WMcVFE2a1gw7kj2fN71L9qt8cm97hdN2bNcMleIFnzCLBZ65FEf5BFErGQCAEIQAACENh1Avg/lcDRw6fXTx8e6fyj0nsP1Be/jE8M0Rk8IQCBLRIQYaRajeb0b9GTZZsuflCtVr2f8JXenVQv2FnW4Nrr5dRtrxdt8qHbkwF9fNcNnchzQQKAXRDYdooji2yHO61CAAIQgMDqCGAJAssTuP36y+UrUxMCEFgXgVyxGM7aX1cba7WrA/Ab0EsPvEUVflZGzovnzWpJRVtu6D0nbvLlasJutRnxeEfcKAJ2B3oKWWQHOgkXIQABCAQEeIcABFZL4PZX16/Vg/eC9TKvrz/R24ucnDxq9IItR6IGZ+dG5TiDAAQgsIsEzH4S0ZYbHb3pRnzHiV2MKgM+AzYDnTDHBWSROYDIhgAEtkSAZiEAAQisncDt80+evn7wqdtF5Ds/+fTTnz29fvny5bNH73zx5JNwL1bjx+xcU4QXCEAAAhCAAAR2kACyyA52Gi7vGwHigQAEIACBbRCIiyJKHR2VSmbDEXX08L0H6vVXX/tezc71S3IOAQhAAAIQgMAuEUAW2aXe2n1fiQACEIAABCCQDQK3vcZHT9/59JmbKZINp/ACAhCAAAQgAIHNE9hPWeTNmzffbPlB8xDILoHNf9Es0WJ6fEsY33wVwtk88/Qtpu8dKZne7LZKipMcKQj8yd//6Mmf/p32T3/wdlT41z//+z//k1/rz7/+k5//D1+o3/mbP/jmm1///O+enPzdn/9aThJydeF1Pbd1CaVvd6HI05vdVsmFwslCYflzd1usaBcCEIDAnhG4uyySRSD37t17iwcEIDCFQBb/0U74NMX3hOSJqllMSPB7SlIWvZ/waYrvCckTVbOYkOD39KQsBhD3abrv5EQE/vyP/+H/9ld/9eXnf+/UPH73d6t//OdvvfX9H33vn/xDk/T3/vP//W98+uzpdD83AAAQAElEQVQPfiQ1vv3b8qfSt37728m5UmBtR7xjs/hpodCzGEDcp4XCyUJh+XM3HgGfIAABCGyCwF62If/X72VcBAUBCEAAAhCAAASSCRw9fPrSe1xfP32o9xQ5elh36ddP6+EuI09ddlJusnlSIQABCEBgHwgQw+EQQBY5nL4mUghAAAIQgAAEIAABCEAAAuME+AyBAyeALHLgFwDhQwACEIAABCAAAQhA4FAIECcEIACBSQLIIpNMSIEABCAAAQhAAAIQgMBuE8B7CEAAAhBISQBZJCUoikEAAhCAAAQgAAEIZJEAPkEAAhCAAATuQgBZ5C70qAsBCEAAAhCAAAQ2R4CWIAABCEAAAhBYOQFkkZUjxSAEIAABCEAAAnclQH0IQAACEIAABCCwGQLIIpvhTCsQgAAEIACBZAKkQgACEIAABCAAAQhskQCyyBbh0zQEIACBwyJAtBCAAAQgAAEIQAACEMgaAWSRrPUI/kAAAvtAgBggAAEIQAACEIAABCAAgZ0ggCyyE92EkxDILgE8gwAEIJARAr2/9WXGj4yAwg0IQAACEIAABHwCyCI+Dc4hMIsAeRCAAAQgAAEIQAACEIAABCCwZwSQRfasQ1cTDlYgAAEIQAACEIAABCAAAQhAAAKHQODQZZFD6GNihAAEIAABCEAAAhCAAAQgAAEIHDqBKfEji0wBQzIEIAABCEAAAhCAAAQgAAEIQGAXCeDzIgSQRRahRVkIQAACEIAABCAAAQhAAAIQyA4BPIHAnQnspyzy5s2bb3hAAAJTCNz5e2MTBqb4npC8CW/u3EaC31OS7tzUJgxM8T0heRPe3LmNBL+nJ925tbUbmO77/uesHe6dG1ioD+7c2toNHHI4C8W+psLy5+7a+5gGskYAfyAAgfUQ2E9Z5N69e2/xgAAEphBYz5fJiq1O8T0hecUNr8dcgt9TktbT/oqtTvE9IXnFDa/HXILf05PW48IqrU73ff9zVslxPbYW6oP1uLBKq4cczkKxr6mw/Lm7yu7Mmi38gQAEILBBAvspi2wQIE1BAAIQgAAEIAABCEBgWQLUgwAEIACBbRNAFtl2D9A+BCAAAQhAAAIQOAQCxAgBCEAAAhDIJAFkkUx2C05BAAIQgAAEILC7BPAcAhCAAAQgAIHdIYAssjt9hacQgAAEIACBrBHAHwhAAAIQgAAEILDjBJBFdrwDcR8CEIAABDZDgFYgAAEIQAACEIAABPaRALLIPvYqMUEAAhC4CwHqQgACEIAABCAAAQhA4GAIIIscTFcTKAQgMEmAFAhAAAIQgAAEIAABCEDgsAkgixx2/xP94RAgUghAAAIQgAAEIAABCEAAAhCYIIAsMoGEhF0ngP8QgAAEIAABCEAAAhCAAAQgAIF0BDYqi4xG/Xa9XnGPers/ijups4PMydx4WT4ppYAAAQhAAAIQgAAEIAABCEAAAhCAwB0IbFAW6bdrtdYwf9bs6Eezmu+1avWrUBkZXdVrrV6+arKbx0py2/0gMt4hAAEIQAACEIAABCAAAQhAAAIQ2H8Cm45wg7JI8bxZbTbOizkTY674QbmgBt0XTvrov+gOVKnqsnOnjyW310IYMbB4gQAEIAABCEAAAhCAAAQgAIF9I0A8mSCwQVlEqZyTRGzkuVxeToYjM1+k/6qnVOHISiaSLGWPC0q5XJ3AEwIQgAAEIAABCEAAAhCAAAR2kgBOQyC7BDYqi8QxjEbDMMGe53ORLKKMajK4Gd9/JKzCCQQgAAEIQAACEIAABCAAgawRwB8IQGDHCGxPFhn1bwZKFY7NDJLRrT73JovsGEbchQAEIAABCEAAAhCAwKERIF4IQAAC+0Bga7KI2UtElc5OvQki+wCUGCAAAQhAAAIQgAAE9o4AAWWHwOjqivnk2ekOpfsjQ+7gCgSWIbAlWaTfbvWU2WF1Gafn1hkOh7/hAQEITCEw919QFgpM8T0hOQvezvUhwe8pSXNNZaHAFN8TkrPg7VwfEvyenjTX2tYLTPd9/3O2Dn+uAwv1wVxrayuQ1vAhh7NQ7GsqLH/upu2q/So3urrodl+ZzQn3K7BdjUZ+7O5yn4xd7T38DghsQxYZXdXHRZHcUUGpwe2qvuDy+fz3eEAAAlMIBP/8M/0+xfeE5EyHETiX4PeUpKBGpt+n+J6QnOkwAucS/J6eFFTK7vt03/c/Z/Fe2XSNhfpg084t3t4hh7NQ7GsqLH/uLt5pu19DiyKDQvmDYnZCGV216/X61arGMSkCkxbb7XZWZswUz6sltf0biAqUesU96ld9JSNO+WQp+ecp+CqpvOk+TeVWukL9toCo28jT1aCUENi8LNJv18yteDvn3teZ2V81ft8Zswur23pEHOWAAAQgAAEIQGBZAtSDAAQgMJOAHTjKODI46vX2YktVJixoSytWC5wo8thfhT/qiyyh29JPcXpSnhiZcaLOrkhUnpow0jkyhDRZlVkDSdPI1JLDwWAmXBlm9/v27ptzynnZIz+uivXcxTa67fV6Q/fBq7Lm05hHIgT1g/ZSCyP9tqBOuCbstdMODQaGU7+LgVq3l682O/rRfFz0xpmpjcQKzu/TWPFVf5CABNUdiMy7IgOHR/2Fr8yg6p69b1gWkR5u9VSh3PQ1EY20eL8Uny5idmRFFdFseEIAAhCAQHoClIQABCAAgWUJlKp6VKmfzbP8sNuqVRYdmEUWtJVOwxcwlvUqrNd/IT+uxscH8oNrq6vO3HC4ejzs1uLDbhl91FrBgLl5rHqtmotJqtZaw3xYNy9Z8bpew63u8DhNybCKfyIttVovFpExjNfSZNUG1mlW82r4arTNPRl1EOKRdahZPT7OedKDGcr1LudNmTHFJu80asZ9qnTfM+jjS3Fubt8hBiygnL67ae60IZfgubm7h3+ewtqOFymeR5HPCUV36mJX5hyDO5y9SVlE//vuDkQTSfqCLH5QLsj3lJvuY6RgNmTd4QsL1yEAgfUToAUIQAACEIDAmgjkZGxVlV8t5w911+RAgtn+K703oX/DhtHVpf7B9QMz9lUqVzw9K6lB90U07cAoKaWqHR2r3OljN+IQ88XzZrXZcDlSVw9GYnWljDukaLNxGrYyo6SrcLc3Gay6MZNrUrw7b4irdzN7l9pmY8hSNRjFCenTmIgxRfAYbzKx2N1VkfFmlvk8MnOH2vOUnWVMH3adXQG7QVnEfCsp+aaqVfyH02vla6rRrJaGokpLbu1GlaoTU0oO+5IieggcMAFChwAEIAABCEBgAQL/87/1bMaR0pDd/O8mWnUytuZkiRGkXkUxbUZGu1KZkmX9NapI4chOCLBJZpKAPU1+naiTKx4XVLByPxeoDqZywqJ+k25ecn6ztqRJj15G0aKXaCmP/CosI5uWyDny86+cVVJMvzFazyI/D+uG6+EKn0rUunUu3muSO61DY1m2rns1Ls3e0SVR8HDVvbeJa0ryTC+WYnNFtM8Gl7yIW95EG0NUxo/Bwqi6iXyCsL7QYpeTqRejLx1m6koT+qhdXFwOtTd+YxqtzpRLMy6Y6AyvdtxHZRrznJRTsSzH9Lgkc7FjuinTuvdPSZcML4+6uKovAFOoMsFNfJiNztSTeLytXOryUeqFRwqwQdlUGMWe3i1F94M4L92jA9KfJnolMLvU+wZlkeJ5J+nhLafRsrQrovVQ/9tnqeCoBIHdI4DHEIAABCAAAQhAIEME8k4RkPGQXo0SrSQZdhdfY3OHuMy+gyrwxhqaGIuPySAJdYykMbmOQ+zZwnIy9zAl4wLNoNu6VPcf65FMs5rvBUt57OqNaklMuuVF3tBHEhMOO3cibj2hmJdUzN0/PjNNS/PNctS6LtNv6147tmtfOs2zYxXe5GJGlq7pPY1wEUfv5dpTK3iExm3ixKuVpWI32jB95qsi5kobHtsFRE2zMCqmZygtMV26lVONhl4xshBh45QOvqscF/ltXhLzZzICDeYEyecpfSo5Ss1kbkr4TtpOnx+XrZjidQFTOtBe3gUaXQBLXJmRX71W5eI2uNpLg17LE2F0e3PARoZSYaxd2raklwb6X1b94vLIXO7NspLPY6JMZHzBsw3KIgt6RvF9J0B8EIAABCAAAQhAAALZJWAGw2587la4B6tRlPyaeSaD/W2vsdGbfRYGos/oH8Gv2vVWrxCt9FDKj2AeZydHHMdmkCRUkt+uL/QSl9i+r0rpZm3VnNkbYMpynASDiUlzNIh4nWIxGsznTs2OjcEcH6c5BFu85Iqn5+fuw4ysuHnlZCClf9u3v9JPTEkZqzH9o9VFeq/CdU7OjXBJjrnSCuXHLiTx2Cx8Gtu3pHQWrH6a3tSMHDf9JehD02WDiYt5Vp/OYB62G3MyXVxh3Vkni5hyeF2fy7/b6AKY1cScPOkfxz9npclADksHNrKeAmPYlm1KDUS+suHYa2m46GbGUeuxM2SRGI71fMAqBCAAAQhAAAIQgAAEdoiAnqfe6qlCyW7l4TSD2AoWOx4Kxt8uNvkd2Q2c5S38DVl+3JaPcojJaEW9+Zl3RpYz6b85kcZLyt3Xq2IKSn5H7vYGqpCP+egVnHNql/u7cJPLWldrra5oIMGAOigZc8wO17yhf1AqzbuRctIUnFbGTNuIZcqv+e0p9xuZkRWZMC7puRP2V/tOx/5MH3ZvVDLF2RgcN2yPVJH+zUDFJwXZCT7BwNs04U8uMQkLvpiIfOkpoQ21QJ9OMheHYk7af0F+kyqpTak291jcVKpenttuVCC+7bFOD7SJVGB1hcRnEsaJtmJYE80sl7haWWQ5H6gFAQhAAAIQgAAEIAABCGybQCRq1C6H+bLZkdTzKTaoU8oMYmLrIfSkiU70CDbo1HsI2lS92KFQdis6zNICO5lfciezvJaD07HWRKjQKkW5aVZSNKulgqgjyyztMTuKitphXAoaG38PXG0e690Q54sCwVBx3M7sz4bq7CLjuSM9jSPcPaLWFV0hKGKm0ygRjVo1vb1j3bvr8oysoHbsvVRtuBkC0p96BkfiUqRYlcQPMV1kXBVxNaILUbQ0uwOGyzFvMcHCpCzz4vePmxCTm2cnrDODubOR5OScuFzNVG8pTS3ay6na9gslnIeQJG8O2PkYxcZmDmSRzXCmFQhAAAIQgAAEIAABCGSbgNv/QkSKTnybhWy6bWZ4FMrBzI1c8bzRLBeUCldDGIlhTEqZDEXEFT2LRd+vZjIzIcXez+aOq2QS7PpJ/sjST084N5s59JTbi0NP5RAEUTmB0mlWy6WCThXVqBXdwXhGVlRfzgzG+Ch/2ZkOYk15uogZNCf8/O9diPpi1M+ZipU2u8jTrXO6cLsGm1UpamJeQtyi/2kOc79o7HyFcaU2lbaXY44u+2ExsMtiXNa7mfWQRWbiIRMCEIAABCAAAQhAAAIQSCBgJszHR8sJpVaVZAbiwT1kjFEzpo6vt3BD7kAJmazj9snwdhCRoVl3oGSQucC4O8Gu8Sj+Mja5MKJaKgAAEABJREFUJp459ZMVDYIIphYLMsxmDkprQ3ZnkyA99p4rnp7rCTVNPSVHxWZ5JGTFquoPJty4R5a9zgyeC1wNNkRRfsxykARVJNbNQQMrfc+dNoSF3pVGT0ep6XVRzXBy04yWTJ+mYp5oRGJOTF8icSFTaXp5CR8SqiwAdnmMCe3ePQlZ5O4MsQABCEAAAhCAAAQgAIE9JmAHsvHdMsz6hwV+Ydd49J0pp4w+Z2TpmkpN7GViRuvjI+j46NzW8balMAPxwGml7ESRQrk5ron02/VKZeo6GSMKRFasf9GraUQlDfejMtPPcqeLb2ZrRuvOpCHgzsfe3KaVY6nm44wshz42DjeN+BEudDWYy2lw8+LFjQhS98N9RbQjJiuu3OjkOz+Nw54VvWxK+l3PQ9HPcH2QVyR2OtmnKZk7KyuM6w6mZvay83TibRzdRIFYwqJgF8MYa2q1H5BFVssTaxCAAAQgAIF9I3Dbazw6OXn0/NYEpj+9bx6PGi7JpAcvt8+ltORLjUbPVuk1Tk4kxR4nJ41eUJZ3CEBgMwTu3opdONJrtfsjY2ykRz/hjqwmae0vVuPw9ngNZ+w7p5TzKlxWIwP6D8oFFbptF0sE+6qKJlLT95RJmCYgg/yBUm6djJQTiSSIXDdyoeeX2M1oXdSDbs0VGPWvdHah/EE43DeLUJyqMDL3zTAmK3Wz6ayz4L0Vz5tlfX+d+lUU2FW9Hqo0xp4rb8fI4bIhS0Bcd1KQyDvediLu93k7V2ZGlrMdvWnSg+6F88c24keoBJgKV6HMjk5bNV4Per0JVUQF+5aEjQlviX0KKW0r8Rm7VqRL6pfx/3iMsBWfADNhZ2qfGu+jpVoWR8R8wpBJsP+CIojLxbWwqdm9bK6k2JUp/2T8WxkloDMuTH1JA9ZVXgqjq7uGN2SRNUDFJAQgAAEIQGBPCGiR46MnX4bR3D7/5MmXJ5+/lMfnH6unH41LHL3GR0+/PHkm2dfPTr588kkgnLz7e6aOTr+ul0JznEBg1QSwtzYCudNGs1oaXuqdOyuVWmtYGt+RVTcd3whS1AS3e4POu/NTD85jEwmMT+X8Tcs6ValdGq9Oc1FTpkhJ75FaEa9vlHjtZoaYnUlkMNt1lSVfH2YALqPqggzzrbQhA9pqOR9ErhvJl5sdZ8W1VChXj15d6Pp6D1hpxJ8TIwbKJWXbqV1oqcP+AD9wA1Jnw3szXvuBtW5U/izQWfR8Ei2bVCrirC4aWq9cvDpqNpvlUsEKJaPc/fzwxvVZEL91bUaW50hwaloJQE9iNqpIIDepedGJUTskFsQJNw7SbVVLKujV2uVN/vi+16VSff5RFGkpYH5xqc4eV2P/85guKcSuVn87WmN/ep9qD6cyN3WTXnQt8WKBuGL+ycUl3W0NpzY1p5cNhtiVKfaLs9FJiRmHsTgHbFBdR7E4xqD2qt+RRVZNFHsQgAAEIACBvSFw+6tr9fGz65+dvOtCOnr49PrpwyP96aj03gP1xS9jv8D1fvmFevCxy3/48YPX17+yE0Z0BZ6rJYA1CMwg8Lf/z49mHAkVZYTS6YwN9SeK6T1NG1LMHOPLDqwFk+W92CH4hKUlE/SYS/SAYKdMbcXsmhA22Bj3yhY5D7z28/WqnbBidGLlDr1PZSd03jQS2DC70XqjdBN441Rv3+GsTDqRO41c0KKNyC7i2fRlOJJp2nQG5c14HrZq3JNU66xv/fw0lzOfjfM502Wh59r1YAuSGVnSesJhrEqbchhnoiJm5pC3Y22K6JSh1okQR9b0mXFbGjKHtHYaeG3rmdh0ueBp+tLCCJKkZMC8Ib0jFsWYV8QLRzI6zWq+123VnPBgvJNaXrcFd+Fx9r3qjThzKeCqh90lSfYQL/QeL7pBiV0qhnHZ/PDVWLDFvFfPfTXdlKnrEM3tZT8OfWUaD6LECXS+cVNWGfauOZ0SVTaex8HqAv7TKyw0/EtXSk20ZZryIEwUkEpLH8giS6OjIgQgAAEIQGDfCYgKUi8ZESQh0tuvo1kkCdkm6fVXX5v3O71QGQIQgIAjkCCMuJydejNLDcLZFTvl+oSz46KIstvaZji6Uf+q3R6bxuR23Zg6f2cibBImCew0WGSRyQ4lBQIQgAAEILAdAjvV6u2vrl+rB+/F5iW7CSR6hsht7/lnX4QBvb7+RG8vcnLyKNhwJMziBAIQgMACBEQYqVbPpv3KvoChLRbV+3fGtubYoi93brr4QbVa9X7CV5mPLqdue71o8xJNQAb0eveRmfN3dDmeswjsNNj9lEXevHnzDQ8IQGAKgVnfZ5nJm+J7QnJmXJ7lSILfU5JmWclM3hTfE5JnuJydrAS/pydlx+1pnkz3/S45f/GX/0L9i7/8C9/Er3/+h09f/87v//QHfuI33/zgp7//O3/65KP333//D//kL/N/Xf31f+2vffPNX/vbv//71dYvrq6u2n8n/8WTP/z5r+OVVvRpGpPspC8UaHbcnubJIYezUOxrKix/7k7rmn1PzxWLu62KKD3531t2sOMdpvvDDyH70RXPm9WSivZcqVT0BiblasLmu35gnM8jUNxhsPspi9y7d+8tHhCAwBQC877SMpE/xfeE5Ey4O9MJyUzwe0qSFM7+McX3hOTsxyIeJvg9PUnKZ/yY7vtdcr79299S3/rtb0cm/vyPW//jnz349A9+FCUFZz/6g39wff3y5ct/8Aff+60/U3/je99/663vf/9HP5I3KfH9/+BHD9Sf/ZN/JqerPzLeNeLeQjFL+YwfhxzOQrGvqbD8uZvxKwT3IJBZAmZnjmjPldkbfWQ2igw6trtg91MWyeAlgksQOAQCxAgBCBwEgVt9u5l3Pn02844yt88fPfni3Uc/ia2xOQg8BAkBCEAAAhCAwG4RQBbZrf7C26wQwA8IQAACh0pANJEnXz4STcTbiVU0kJOTR8/1liJK3faeNx6dfHT9zqNn9p41t88bz3smT7I++2J8P5JDBUncEIAABCAAAQhkgwCySDb6IcNe4BoEIAABCEAgJHD7/LP/9a/+6k//uw/fN49IDAlK3D7/o8+u1cfPnj2tP3TCydEPv/vVZ6bCh0+u580yCezwDgEIQAACEIAABDZDAFkk4swZBCAAAQhAAAJJBI4ePr22Mz/k7KX3uLbJkurO1NHD+tOn9dKRk0SMNZ1mK13rLJPGCwQgcBAE+u16pVK3N0P1zw8ieIKEAAQyTcBzDlnEg8EpBCAAAQhAAAIQgAAEDpfASKQL0TEq9lGvt6/6o9E6cYz6a25gnc5jGwK7QgA/5xFAFplHiHwIQAACEIAABCAAAQjsPYHRVb1Saw3zZ82OfTTP8sPuZf9OgRfPG52Ouxetf26N9tu1VuvFWnUX2xCvB0OAQCGwFAFkkaWwUQkCCxK47TUexZbg64T3339f0hpuk8IFLVIcAhCAAAQgAAEIrIzA6OqiO1ClauO8mHNG9b02A0nDJfGWHQJ4AgEIrI4AssjqWGIJAskEbp83Hn305Es/8/b5J0++PPn85cvrZx+rpx81en4m5xCAAAQgAAEIQGCjBKwoUih/UJzTrF5lY1fYVCr1tt0zxFbRk00q7b7q691EpIicKtW/atfr3qqcsIYpXWnpv4B6LSld0VWtoYlXEiAAAQismQCyyJoBYx4Ct7/S92S4/tnJuyGL3h89ff3gY3OPhqPSTx69+8VnzBgJ4XACAQhAAAIQOFQC24t7dDtQqnAcThRJ9kS0jFpreFw1q2ya1eNhtzamZojEcansKpxzrbAUc/ePzx7bNTmdZjnf69bs/qu504akVkvSUKkqZ52OKS8fOSAAAQhsnACyyMaR0+ChETh6OH7jhduvv1Tvfvc7DsTRd95Rr7/62n3iDQIQgAAEIHAABAgxWwRGo6E4lM8Fy2fkw+RhZpQUyo9PrXiSK54+LhdU79KfMqJU6SxahSM2ikVXXM5zp/dFBhnc9NlMRGhwQAACGSKALJKhzsAVCEAAAhCAAAT2jQDxQGAHCJjJIr6f/bZZ2GJe7PQONerfDJSKSSe5XF6pwa2vcpTu60kivin/PHdU8D9yDgEIQCAbBJBFstEPeAEBCEAAAhDYdQL4DwEI7CqBCbmieG4WtphFLrGgenYjEKOXVOzeIH5+4WhswsnI7C7iildqXVFW/PKcQwACEMgCAWSRLPQCPkAAAhCAwE4RwFkIQAACe0hgOPLnfSQH6DYCMaKJe5mxKUi/XWt1e8rtRtLpNMvMFknmSioEILBVAsgiW8VP44dJIL6bSHynkcMkQtQZJoBre01g9F99lfFjr/ETHASyQyBXPBa9Ir4cJtm7NNJJUHN0ddlTKtqNJEjnHQIQgEDGCCCLZKxDcOcgCHh3n7n17kpzELFnOEhcgwAEIAABCBwqAauLjG+fGqNhiyy+Yaq/G8nEHiaxFvgAAQhAYEsEkEW2BJ5mD5vA0cOfffrO9Yfvv3/y0Wfq0bN6abM4aA0CEIAABCAAAQj4BHKnjWpJDboX7eg+MaP+K32DmqBYztx5RopcuSKj/lW93u4H+RPvVkgJtZZRv93qSSFvUorZ08RNQBmlWMIjtTkgAAEIrJ7Afsoib968+YYHBL755psMQXj7x61ftH78duDR2z/4aevq6uoXv2j9NEoMMtf8vvovkjVYTM9gDY2v3iThrJ7p6iym7x0pubpm12VJnEx/rMuJ1dlNH4uUXF2z67IkTqY/1uXE6uymj0VKrq7ZdVkSJ3frkD93V8yieN5pVvPDy1q4QerlUJXK5TN7Q15pTbSTpognNy1bpHZ5kz++P7bHqhQLD12+XFJdW/zi1VGz2SyXCqFQorTSEuTXLpzaElbnBAIQgMCGCOynLHLv3r23Du1BvBBITWBD3y53ayZ1NG/drZ0N1SacDYFeqpn0vSMll2pho5XEyfTHRj1bqrH0sUjJpVrYaCVxMv2xUc+Waix9LFJyqRY2Wkmc3K1D/txdPaBc8bzRcDupyluj0Tg/PQ1VEd1erITODnNFA+l0GqdjKknu9DwwKLZyOfPZK2U+S1NyeKm6JZ4QgAAENkZgB2WRjbGhoW0Q6DVO3vceJ4+e30ZuSGaUe3LS0BMxo1zOIAABCEAAAhCAAAQgAAEIQGCfCGwiFmSRTVCmjfQESvXrl8HjP/t3/qV3T354FKv87u997rKvr9mRI4aGDxCAAAQgAAEIQAACEIDAzhLA8a0RQBbZGnoankPg9vlnX0yoInPqkA0BCEAAAhCAAAQgAAEIZJwA7kEgWwSQRbLVH3gTErj91fVrVJEQBycQgAAEIAABCEAAArtHAI8hAIEdIIAssgOddJAualXkwccP4ytohMTr60/09iInJ48aPW/XEcnhgAAEIAABCEAAAhDYGgEahgAEILCrBJBFdrXn9tzv3h89ff3gvdJYlN/5yaef/uyp3nzk2aN3vnjyib8d61hRPkIAAhCAAAQgAIH1EMAqBCAAAQjsFQFkkSrnGeYAABAASURBVL3qzr0JpvfLL9SkKqKOjkolO3/k6OF7D9Trr77em4gJBAIQgAAEIJBBArgEAQhAAAIQ2H8CyCL738c7GKGoIu8++sn4XJEdDASXIQABCEBgVwjgJwQgAAEIQAACB0oAWeRAOz7LYY/fgub2+aOTk0fPb9Xt88Zzu6HIbe/5Z4nzSdYU1z/69rezf6wpdsxCAAJ7R4CAIAABCEAAAhCAAAQiAsgiEQvOskHg9uuv1IOTH9rFMjGXjn743a8++/B9eXz45PqdT5/VmU8S48MHCEBgnACfIQABCEAAAhCAAAQgMIcAssgcQGRvnMBRqf607t+C5ujh0+vrpzrl6GH96UvzuH5ad7uMbNw/GoRAJgngFAQgAAEIQAACEIAABCCwDAFkkWWoZbtOr3Gib2H7vnmcnDR62XYX7yCwIAGKQwACEIAABCAAAQhAAAIQWBkBZJGVocySoXd/73Mzp+Lly+trVppkqWcW84XSEIAABCAAAQhAAAIQgAAEILBeAsgi6+WL9XQEKAUBCEAAAhCAAAQgAAEIQAACENgCAWSRDUOnOQhAAAIQgAAEIAABCEAAAhCAAASyQmB9skhWIjxIP15ff6K3Fzk5edTo3R4kAYKGAAQgAAEIQAACEIAABCAAgQ0R2OlmkEV2uvsSnf/OTz799GdPr1++fPns0TtfPPnkOcJIIicSIQABCEAAAhCAAAQgAAEILEiA4vtHYD9lkTdv3nxzuI+33/7BD9424b/947/5O+r1b/4f84GXOxDYiX/56eMjnM0ToHc2zzx9i+l7R0qmN7utkuJk+mNbTqZvN30sUjK92W2VFCfTH9tyMn276WORkunNbqukOLlbh/y5uy1WtHs4BIgUAgdCYD9lkXv37r3FQxO491tK/RYwNIo7PXfi6yB9hISzeQL0zuaZp28xfe9IyfRmt1VSnEx/bMvJ9O2mj0VKpje7rZLiZPpjW06mbzd9LFIyvdltlRQnd+uQP3e3xWov2yUoCEDgkAnspyxyyD2qbp83ntsNRW57zz/7Qj14r7QFHt88eJD9YwtcaBICEIAABCAAAQhslcDuNz66uuqPdj+MvYlA98feBEMgh0oAWWTvev7oh9/96rMP35fHh0+u3/n0WX0bqsjeUSUgCEAAAhCAAAR2jQD+7iWB0dVFt/sKWSQzndt/0e222v3M+IMjEFiGALLIMtSyXefoYf3pS/O4flovHWXbWbyDAAQgAAEIQODOBDAAgUMhoEWRQaH8QTE7AY+u2vV6/WqDQo202G63szJjpnheLane1oURgVKvuEf9yqg0oyudYkH55/OvHW1ss30636fUJfptCbtuw05diYLIIlwDEIAABCAAAQjsDAEchQAE1kLAjhrdqFK/1evtxZaqTFgwVlarFjhR5PFpLoIw6ossodvST3F6Up4YmXGizq5IVJ6aMNI5MoQ0WZVZA0nTyNSSw8Eg8ifxbNTvjyYdSywaJI78uCrWc2didNvr9YbuQ1B+3e8xf+KcFxFG+m2hnSAi2ctn2UknUrvW7eWrzY5+NB8X7yybze/TtQN3os5y7cy7IgOrS1yZQdU9e0cW2bMOJRwIQAACENgTAoQBAQhAYNMESlU9qtTP5ll+2G3VKouOUyML2kqn4QsYd46m/6I7UIXjoieK9Nu1VledueFw9XjYrcXH3HrA3AoGzM1j1WvVXExStdYa5sO6ecmK1w0d7r9odYfHaUqGVfwTaanVerGIjGG8liarNrBOs5pXw1cjL3Df/gbOdQgzOBfvl5TqXaYQwUzJwY0nThnvR/0bGciX7i8pZ4xubW0LKJdz76cNuQrPzfWS885Ni/v7UjyPwp4Tpe7Wxa7MOQZ3OBtZZIc7D9chAAEI7AcBooAABCAAgYwRyMnYqpp2qLsh3/uvekqVzjylZXR12VN6SY0bBhdPz0pq0H1hllAYr4ySUqraobHKnT4uF0QZMcJI8bxZbTZcjsoVP5CsWF1jwLxI0Wbj1Ayv1eySpvhdX2Sw2h0UylGT0uZ5Q1y9q+Fl68/nPEXtSGgwseQdVZGEZhZOGpm5Q+0Uys7Cpg++wk6wRRY5+OsUABCAwAYJ0BQEIAABCEBgAwT+k3/jP5xxpHQgd1RQyv9hf2zNyRIjSL2EYtqMjHalMiXL+mtUkcKRVUBskpkkYE+TXyfq5IrHEtTQrmjJOaHD1s3l8nLisuQsduT8Zm3JWL5S3iKTaInJyCyEaImcI2JMRT+MIjNWNf7RaBBx+SdeYPyTXm1TD1f4VKLWbcF4r0luNFNjRpat617nclYqUe1w1eNvE5eVZJsGvLki2jFNSz/FY2+ijSEqEIOFUXUTeRJhfa3FrihTNZr/JB1m6uo25Fm7uLgcalf8xjRayZMj7oXSGV7tsVzTkueknIple0wPzeanfZ1ux7Tu/VPSJcPLoy6u6gvAFKosw02ZqhKS3oBFyOijLh99x1OwNcVnY5Qiri2xpzdMsU3p7x0dk/4k3xmrUrKQRYQ3BwQgsHoCWIQABCAAAQhAYA8I5J0iIAOUWqvnrTkZdhdfY3MHHqORHrQG3lhDE2PxMRkkoY6RNHytx1qSV1tYTuYepmRcoBl0W5fq/uOOPJrVfC9YymOXblRLYtItLzqft0zETpyIW5fqM45i7v7xmWlat16OWtd1+m3da8fBYpyzY3UbjPtnZOma3nMeZ13Uqh2hcZ2U/LTK1MAvabotVEXMlTY8tguImmZhVCRmGJu9VuXSrZxqNPSKkYUIGxM6+K5yXJqmfv6s0TgP5gRJoSl9KjmiAs1ibkpoHSxwMuz0+aHZuvNeF7CjA+3lXaCdZnABLHFlxpySLri4DS740qDX8nQY3eQcts7WzEvXlVFCsnZp25KOGuh/XPWLyyNzxTfLSj6PiTJhxYVOkEUWwkVhCCQQIAkCEIAABCAAAQjsHwHzE74bn5vNTlW4GkXliudnMthPtZ3EGsnozT4LA9Fn9I/gV+16q1coVaMNTfwI5nnh5IjYziVJdeSH6wu9xCW276sSNMEqm5nLcZIsJqXF5Z+kEl5asRgN5nOnepuPUPdxgkOw8ChXPD0/dx9mZHm27ekczrZQ2leri/RehUudnCdWMDJXWqH82IUkHpuFT2P7lpTOgtVPaVuNlTMzcnQjOZNsumwwcTHrS8lOKDIFYsuzZjA3JvXLuJPpQtM1Zz8XsePYuj6Xf7fRBTC7kXm5Qs91Qc6qZoHOlY6tM58Go1JhW7YpNRAFy0Zkr6UpU7xcGynfkEVSgqKYJsATAhCAAAQgAAEIQOAACOhJ6q2eKritPJxmEFvBYgdDY5tnyo/Idm67fg1/QJYft/Xnipm0r1UM88n8xjsjKwGzE2m8HPnVviDjJiU/Ind7A1XIH9mRrlck1anZhGT20hXrqt7itVQdE0VUzDE7VvPG/ak8cIWMlOPOl3oz0zZiNeWn/PaUO+HMyIqZUKvirK2O8XEjd6eKmL1XY6qQneATjLq1ARXOLDGfFn8xkP1GEtpYpE8nmYtP407af0R+qyqpWak5+1jcTupent2wnxvf+VjnBNpEKra6wuQzEaP86x7XKsfJTlpaIgVZJBkaqRCAAAQgAAEIQAACEDgsApGoUbsc5stmR1KPQGxEp5QZxMQWQ+hJE53oEU7bsDP2JUMvViiU3YoOs7RgRpbXcnA61poIFVqlKDfNSopmtVQQdWSZpT39tmhASk+GCVpKeA9cbR4PW7XYrhUJhSUpGCfK6QKHobpAeSk6Mls0GKlJXmrdgaS5w0zzUCIatWo1yXMbS5jMGVkm33tZGWdnM6aLxFQRVyC6EMVpI6a5DPsWE6Fs0hKvfv8krItKtBjWmcHcVZzi5JzQXOX5byntLNDL89tMXyLkJFVmsZ2PUQxs5vjWZpqhFQhAAAIQgAAEIAABCEAg0wTc/heiX3Ti2yxk02szw6NQDmZu5IrnjWa5oKI7xRqJYUxKmQxFBv0pRJGonr2fzZSb1kTF7nTmDyvnGDI7OfSU24uj0zEIojoCpdOslksFASPySLcV3cF4RlZUX87mcpYyix2eLmIGzeM//3sXor4Y9dOIaIu1Mr20u+3Qhd69U0qZVSljt36W5OnHHObTK44JhzqwTmep0FIjmuzlcBbXLD+XzluA7R0wLu3e1IrMFpmKZsMZz/+Pf5rxY8NAaA4CEIAABCAAAQhAIMMEzGz5Kb+Jr95ts95A+XKBGVCr+BQWO94OlJDJOspU8lcAyNCsO1AyyFxgcJpgNyHguGcJBRKT4hEkFvETzU4OevMFtxeHnxee54qn53pCTVPP1ondXMhsNjElK6hukM3krEsudjXYKKU3zYqQcVUk1s3a+JLP6dVypw1hEaznqnXlAmiGk5umV7MUUjGfZkRinpa1UPpCdmZcAAs1mqpwWrZ3wpjKk4UKIYsshIvCEIAABCAAAQhAAAIQODQCdhQb3y3DLH7wBYYUUIrnnc6U0eeMLGt4Yi+TRHEiPjq3dbxtKcwoPHLaThQplJvjmoi5/+vUX9WNUBBZsf5Fr6aRpfe/yJ0uvpmtr8AYApEz/pnbsdJPCs5nZeXyUmpsGG5a8TSxRa8Gc0UNbl68uBFN6r7dV0RaEZnmuKDiyo1OXsXTuBwY0sumpN/tdA25KN32oUH2xPtkn6ZkHlkyIa8gtDvYmdHLkZ/jZzFu45lJnxdiuzDGpBZXkYYssgqK2IAABCAAAQhAAAIQgMD+ErALR3qtdt/e3nWkhz7hjqybiVtrHLFRZThd3zmlnFfhshqlTJHQbbtYwm0jq0QTqel7yiRME5BB/kAG590X+m4pUq5SqQeR60Yu9PySM3svDBv7oFtzBUb9K51dKH8QjvXNWh4nK4xGGqAxqW3a2mOvxfNmWd9fp34VBXZVr4cqjbHn6tgxcngTFUtAXHdSkMg77dCKRHzZC3ewnJHlbAdvBuKgexEasq1Ey5eUEmChYWmmXjHEAgNJ78bxQa8XV0WUslea15oArQv9JBsz02KXizaiYw9qGGErmFQUJI69T+1T43q0VMvSiJiPmYk+riq0RezM7mVzJcWuTPkn49/KaJxbFMz0szRsde1lMeq6a3gii6wBKiYhAAEIQAACEIAABCBwFwKZq5s7bTSrpeGl3rmzUqm1hqXxHVm1y/GNIGVs7HZv0Hl3ftrhuXfvG+NTOX/Tsk5VapfGK1+vMEVKeo9UGanXbvRiCTczxOyYIYPZrqss+fow98eRIXVBhvlW2pBRaLWcDyLXjeTLzbENIQrl6tGrC11f7wGr0XhOiIFySdl2ahda6rA/wA/cgHQSjPHaD6x1o/Jngc6i55No2aRSEWd10dB65eLVUbPZLJcKVigZ5e7nhzeuz6TXTPx2us6MrAl/dBuCYDpno4oEcpOaF521b0fFQnn83kGmtZIKWqtd3uSP7+dspUVetboUYL+4VGePq6WwuumSQuxq9bejNeWm96n2cCpzU3dMHCpiAAAKhElEQVTKi64oXiwQWsxFub6kx8V2ajtzetlgiF2ZYrwoqtw0bpI99zBG57A1RnQUS2E0tVf9sp+yyJs3b77Ztceqe3b19hYiuvrm12AxfURraHz1Jgln9UxXZ5HeWR3L1VtK3ztScvXNr9qiOJn+WHXjq7eXPhYpufrmV21RnEx/rLrx1dtLH4uUnNV8NvLEyd065M/dGeT+y//7v59xJFSUEUpn7t6Pek/ThhQzR2Ns2YG1YLK8FzsET2hwqSQ94BI9INgpU9swuyaEDTbGvbJFzgOv/Xy9aiesGJ1Y0UTvUxkt9zGNBDbMbrTeKN0E3jjV23c4K5NO5E4jF7ReIrKLeDZ9GY5kmjadQXkznoetGvck1TrrWz8/zeXMZ0M+Z7os9Fy7XnRGZmRJ6xNH3B3jTVjGzBzybuOTIjpd14DrRJR1mnsatyU+c0hj0cYpppKJzRU1b6YvLQzz2b0YEM6GmIiVivJMgWY13+u2alZ1UK6VGX3qVW/EmUvbrrojLQneMT00r5A+NUaMb/5LGOR0O6aiQzS3l/049JWpW5bwg8u1IRe2tCQehA1LrlxQzr4prgxYL8UzKjU7cba2inv1Sk5ilDJ+LPJR2aYiXxKcMcWWeNlPWeTevXtv7dpjic7bcJWFiG7Yt+WaSx/RcvY3XItwNgx8oebonYVwbbhw+t6Rkhv2bYnmxMn0xxL2N1wlfSxScsO+LdHcW+Jl6mMJ+xuukjoUXXDDvi3RnPZyp57y5+4SYe58lQRhZBdjMusMwtkVuxhB5PO4KKLstrYZjm7Uv2q3x6YxuV03ps7fieLlbBaB3WW7n7LIrL4iDwIQgAAEIACBdRPAPgQgAIH1EBBhpFo9C+Y8rKeNdVvV+3f6m4+su7212i9+UK1Wvd/vVeajy6nbXs/bKkXwyGhebz0yc/6OFOOYR2B32SKLzOtb8iEAAQhAAAIzCJAFAQhAAAIbJZArFndbFTEz/701Bxult/rGdH/4VvXCh2xHVzxvVksq2nOlUtEbmJSrCZvv+oFxnoJAcVfZIouk6F2KQAACEICAUgoIEIAABCAAAQhAYPcJ5IrnjUZDb3zhnrENTHY/vm1GsKNskUW2edHQNgQgkFECuAUBCEAAAhCAAAQgAAEIHAYBZJHD6GeihMA0AqRDAAIQgAAEIAABCEAAAhA4YALIIgfc+YcWOvFCAAIQgAAEIAABCEAAAhCAAATiBJBF4jz24xNRQAACEIAABCAAAQhAYPsE+u16pVK3N0P1z7fvGR5AAAIQCAnsuCwSxsEJBCAAAQhAAAIQgAAEIHAnAiORLkTHqNhHvd6+6o9Gd7I4p/Kov+YG5rRPNgQgsFME1uVspmQR/UVsv4Qr8i3cX+t38LqAYhcCEIAABCAAAQhAAAK7R2B0Va/UWsP8WdPdnKN5lh92L/t3iqR43uh03N1a/XNrtN+utVov+Jvf0uAVAj4BzjdKIDuyiHwT11q9fNV8ETePVa9Va9/ta3ijIGkMAhCAAAQgAAEIQAACu0pgdHXRHahStXFezLkY9I02A0nDJfEGgdUTwCIEtk8gM7JI/4X5JnZfxLnTx+WCKCMII9u/RPAAAhCAAAQgAAEIQGC/CVhRpFD+oDgnTm9yd6XetnuG2CryE2elIn+79/VuIhVzqlT/ql2ve6tywhqmdKXVk7q9lpR25eXjPh/EBgEIZJRAVmSR/iv5ViwcBeK0UrnicUGp4XpXM2a0U3ALAhCAAAQgAAEIQAACmyMwuh0oVTgOJ4oktyxaRq01PHaTu6vHw25NCyFeYZE4LtVZs9PpdM61wlLM3T8+eyyf9NEs53vdmt1/NXfakKRqSeqWqnLmystHDghAAAIbJ5ARWWQ0Gkro+Vwki6hcLq/U4IYdRgQMBwQgAAEIQAACEIBAFgnsh08Jf4pPBmZmlBTKj0+teJIr2tndl/6UEaVKZ27ytzVQLLri8jF3el9kEP68FxQcEIBAtghkRRYxCrU3WSRblPAGAhCAAAQgAAEIHDgBwt9jAmayiB9fv20WtpgXO71Djfo3A6USfsW89bdMLd3Xk0R8U/557qjgf+QcAhCAQDYIZEQWyQYMvIAABCAAAQhAAAIKBBA4NAITckXx3CxsMYtcYjB6diMQo5dU7N4gfr6/JN6kj8zuIq54pdYVZcWk8wIBCEAgQwSQRTLUGbgCAQhAAAIQ2CwBWoMABCAQEkizqZ/bCMSIJu7FbCISGomd9Nu1Vren3G4knU6zzGyRGCA+QAAC2SCQEVnESNSD2BS8u/AZDoe/2bXHv/0v/9OMHwsR/X/b7ewf6SP6N//xP87+kT6c/+JHKvtH+nAG/8q/l/0jfTj/7N//b7N/pA/nw9/8x5k5pnqSPhwp+X/983+U8UOcTH/8xb/7zzN+pI9FSv6r//X/l/FDnEx//Ov/03HGj/SxSMn/6MV/mvFDnNytQ/7cvctfy/G69l4Haf4WTyOdBLZHV5f6ngrhbiRBOu8QgAAEMkYgK7KI3l81ft8Zs/XT3A2xk3Hm8/nv8YAABCBwoAQIGwIQgAAE9p+A/Lmb/HfwUqlWF+mNbZ8aM2WLLL5hqr8bycQeJrEW+AABCEBgSwQyIouootmY2psuYnZ1WlIV2RJLmoUABDZNgPYgAAEIQAACEFgFgdxpo1pSg+5FO7oN5Kj/St8rMjCfM3eekSJXrsiof1Wvt/tB/sS7FVJCrWXUb7d6UsiblGImjLsJKKORv3WrlOOAAAQgsCkCWZFFVPGDckH1Wu6b2NwATJXOTr079m4KCe1AIIsE8AkCEIAABCAAAQisk0DxvNOs5oeXtXCD1MuhKpXLZ/aGvNK0aCdNEU9uWrZI7fImf3x/xl/runy5pLq2+MWro2azWS4VQqFEaaUlyK9dOLVFGuKAAAQgsFECmZFF5GuxId+zQ/s1W7tRpWpzxgZOG4VEYxslQGMQgAAEIAABCEAAAtsgkCueNxpuJ1V5azQa56enoSqiPYqV0NlhrmggnU5j/DfN3Ol5YFBs5XLms1fKfJam5PBSdUs8IQABCGyMQHZkEQlZf8/Kd6I+5Fs2/JKVnP08iAoCEIAABCAAAQhAAAIQgAAEIACBbRLYjCyyzQhpGwIQgAAEIAABCEAAAhCAAAQgAIHNENi5VpBFdq7LcBgCEIAABCAAAQhAAAIQgAAEtk8AD/aDALLIfvQjUUAAAhCAAAQgAAEIQAACEFgXAexCYI8JIIvscecSGgQgAAEIQAACEIAABCCwGAFKQwACh0YAWeTQepx4IQABCEAAAhCAAAQgoAnwhAAEIAABIYAsIhA4IAABCEAAAhCAAAT2mQCxQQACEIAABKYRQBaZRoZ0CEAAAhCAAAQgsHsE8BgCEIAABCAAgYUIIIsshIvCEIAABCAAAQhkhQB+QAACEIAABCAAgbsTQBa5O0MsQAACEIAABNZLAOsQgAAEIAABCEAAAmsigCyyJrCYhQAEIACBZQhQBwIQgAAEIAABCEAAApskgCyySdq0BQEIQCAiwBkEIAABCEAAAhCAAAQgsHUC35LHb3hAAAIQWCcBbEMAAhCAAAQgAAEIQAACEMgggW9961v/PwAAAP//knuw+QAAAAZJREFUAwBvxbq4mdOlHAAAAABJRU5ErkJggg==;" vertex="1" parent="1">
          <mxGeometry x="900" y="160" width="1458" height="709" as="geometry" />
        </mxCell>
      </root>
    </mxGraphModel>
  </diagram>
</mxfile>
